M48
INCH,LZ
;FILE_FORMAT=2:4
;TYPE=PLATED
;Layer: PTH_Through
;EasyEDA v6.4.29, 2022-01-17 15:18:18
;f717e2ddec04441081c87138b9a9d0f6,57a4a698a74a44ef878f5d1479004e60,10
;Gerber Generator version 0.2
;Holesize 1 = 0.0350 inch
T01C0.0350
;Holesize 2 = 0.0400 inch
T02C0.0400
;Holesize 3 = 0.0410 inch
T03C0.0410
;Holesize 4 = 0.0450 inch
T04C0.0450
%
G05
G90
T01
X005450Y004600
X004450Y004600
X005475Y006992
X004475Y006992
T02
X001100Y007914
X001100Y008914
X001100Y006914
T03
X006700Y009000
X007700Y009000
X008700Y009000
X009700Y009000
X010700Y009000
X011700Y009000
X012700Y009000
X013700Y009000
X014700Y009000
X015700Y009000
X016700Y009000
X017700Y009000
X017700Y001000
X016700Y001000
X015700Y001000
X014700Y001000
X013700Y001000
X012700Y001000
X011700Y001000
X010700Y001000
X009700Y001000
X008700Y001000
X007700Y001000
X006700Y001000
X005700Y001000
X004700Y001000
X003700Y001000
X002700Y001000
X006700Y010350
X007700Y010350
X008700Y010350
X009700Y010350
X010700Y010350
X011700Y010350
X012700Y010350
X013700Y010350
X014700Y010350
X015700Y010350
X016700Y010350
X017700Y010350
X002700Y-000350
X003700Y-000350
X004700Y-000350
X005700Y-000350
X006700Y-000350
X007700Y-000350
X008700Y-000350
X009700Y-000350
X010700Y-000350
X011700Y-000350
X012700Y-000350
X013700Y-000350
X014700Y-000350
X015700Y-000350
X016700Y-000350
X017700Y-000350
T04
X020200Y000977
X020200Y001977
X020200Y002977
X020200Y003977
X020200Y004977
X020200Y005977
X020200Y006977
X020200Y007977
X020200Y008977
M30
