G04 Layer: BottomSilkscreenLayer*
G04 EasyEDA v6.4.29, 2022-01-17 15:18:18*
G04 f717e2ddec04441081c87138b9a9d0f6,57a4a698a74a44ef878f5d1479004e60,10*
G04 Gerber Generator version 0.2*
G04 Scale: 100 percent, Rotated: No, Reflected: No *
G04 Dimensions in inches *
G04 leading zeros omitted , absolute positions ,3 integer and 6 decimal *
%FSLAX36Y36*%
%MOIN*%

%ADD10C,0.0100*%
%ADD16C,0.0080*%
%ADD18C,0.0060*%

%LPD*%
D16*
X689600Y399996D02*
G01*
X689600Y465497D01*
X158200Y1075700D02*
G01*
X165500Y1072100D01*
X172699Y1064800D01*
X176399Y1057500D01*
X180000Y1046599D01*
X180000Y1028499D01*
X176399Y1017500D01*
X172699Y1010300D01*
X165500Y1003000D01*
X158200Y999400D01*
X143600Y999400D01*
X136399Y1003000D01*
X129099Y1010300D01*
X125500Y1017500D01*
X121799Y1028499D01*
X121799Y1046599D01*
X125500Y1057500D01*
X129099Y1064800D01*
X136399Y1072100D01*
X143600Y1075700D01*
X158200Y1075700D01*
X97800Y1075700D02*
G01*
X97800Y999400D01*
X97800Y1075700D02*
G01*
X46900Y999400D01*
X46900Y1075700D02*
G01*
X46900Y999400D01*
X228200Y575700D02*
G01*
X235500Y572100D01*
X242699Y564800D01*
X246399Y557500D01*
X250000Y546599D01*
X250000Y528499D01*
X246399Y517500D01*
X242699Y510300D01*
X235500Y503000D01*
X228200Y499400D01*
X213600Y499400D01*
X206399Y503000D01*
X199099Y510300D01*
X195500Y517500D01*
X191799Y528499D01*
X191799Y546599D01*
X195500Y557500D01*
X199099Y564800D01*
X206399Y572100D01*
X213600Y575700D01*
X228200Y575700D01*
X167800Y575700D02*
G01*
X167800Y499400D01*
X167800Y575700D02*
G01*
X120500Y575700D01*
X167800Y539400D02*
G01*
X138699Y539400D01*
X96500Y575700D02*
G01*
X96500Y499400D01*
X96500Y575700D02*
G01*
X49299Y575700D01*
X96500Y539400D02*
G01*
X67500Y539400D01*
X319800Y432696D02*
G01*
X254400Y432696D01*
X287100Y399996D02*
G01*
X287100Y465497D01*
X384800Y697696D02*
G01*
X319400Y697696D01*
X352100Y664996D02*
G01*
X352100Y730497D01*
X637100Y664996D02*
G01*
X637100Y730497D01*
X1970000Y935727D02*
G01*
X1940909Y859364D01*
X1911818Y935727D02*
G01*
X1940909Y859364D01*
X1855091Y924818D02*
G01*
X1855091Y859364D01*
X1887817Y892091D02*
G01*
X1822363Y892091D01*
X1915455Y817545D02*
G01*
X1919090Y824818D01*
X1926364Y832091D01*
X1933635Y835727D01*
X1948181Y835727D01*
X1955455Y832091D01*
X1962727Y824818D01*
X1966364Y817545D01*
X1970000Y806635D01*
X1970000Y788454D01*
X1966364Y777545D01*
X1962727Y770273D01*
X1955455Y763000D01*
X1948181Y759364D01*
X1933635Y759364D01*
X1926364Y763000D01*
X1919090Y770273D01*
X1915455Y777545D01*
X1915455Y788454D01*
X1933635Y788454D02*
G01*
X1915455Y788454D01*
X1891454Y835727D02*
G01*
X1891454Y759364D01*
X1891454Y835727D02*
G01*
X1840545Y759364D01*
X1840545Y835727D02*
G01*
X1840545Y759364D01*
X1816544Y835727D02*
G01*
X1816544Y759364D01*
X1816544Y835727D02*
G01*
X1791090Y835727D01*
X1780182Y832091D01*
X1772908Y824818D01*
X1769273Y817545D01*
X1765636Y806635D01*
X1765636Y788454D01*
X1769273Y777545D01*
X1772908Y770273D01*
X1780182Y763000D01*
X1791090Y759364D01*
X1816544Y759364D01*
X1919090Y724818D02*
G01*
X1926364Y732091D01*
X1937272Y735727D01*
X1951818Y735727D01*
X1962727Y732091D01*
X1970000Y724818D01*
X1970000Y717545D01*
X1966364Y710273D01*
X1962727Y706635D01*
X1955455Y703000D01*
X1933635Y695727D01*
X1926364Y692091D01*
X1922727Y688454D01*
X1919090Y681181D01*
X1919090Y670273D01*
X1926364Y663000D01*
X1937272Y659364D01*
X1951818Y659364D01*
X1962727Y663000D01*
X1970000Y670273D01*
X1840545Y717545D02*
G01*
X1844182Y724818D01*
X1851454Y732091D01*
X1858726Y735727D01*
X1873272Y735727D01*
X1880545Y732091D01*
X1887817Y724818D01*
X1891454Y717545D01*
X1895091Y706635D01*
X1895091Y688454D01*
X1891454Y677545D01*
X1887817Y670273D01*
X1880545Y663000D01*
X1873272Y659364D01*
X1858726Y659364D01*
X1851454Y663000D01*
X1844182Y670273D01*
X1840545Y677545D01*
X1816544Y735727D02*
G01*
X1816544Y659364D01*
X1816544Y659364D02*
G01*
X1772908Y659364D01*
X1919090Y624818D02*
G01*
X1926364Y632091D01*
X1937272Y635727D01*
X1951818Y635727D01*
X1962727Y632091D01*
X1970000Y624818D01*
X1970000Y617545D01*
X1966364Y610273D01*
X1962727Y606635D01*
X1955455Y603000D01*
X1933635Y595727D01*
X1926364Y592091D01*
X1922727Y588454D01*
X1919090Y581181D01*
X1919090Y570273D01*
X1926364Y563000D01*
X1937272Y559364D01*
X1951818Y559364D01*
X1962727Y563000D01*
X1970000Y570273D01*
X1895091Y635727D02*
G01*
X1895091Y559364D01*
X1895091Y635727D02*
G01*
X1869636Y635727D01*
X1858726Y632091D01*
X1851454Y624818D01*
X1847817Y617545D01*
X1844182Y606635D01*
X1844182Y588454D01*
X1847817Y577545D01*
X1851454Y570273D01*
X1858726Y563000D01*
X1869636Y559364D01*
X1895091Y559364D01*
X1791090Y635727D02*
G01*
X1820182Y559364D01*
X1791090Y635727D02*
G01*
X1761999Y559364D01*
X1809273Y584818D02*
G01*
X1772908Y584818D01*
X1940909Y540727D02*
G01*
X1970000Y464364D01*
X1940909Y540727D02*
G01*
X1911818Y464364D01*
X1959090Y489818D02*
G01*
X1922727Y489818D01*
X1887817Y526181D02*
G01*
X1880545Y529818D01*
X1869636Y540727D01*
X1869636Y464364D01*
X1940909Y445727D02*
G01*
X1970000Y369364D01*
X1940909Y445727D02*
G01*
X1911818Y369364D01*
X1959090Y394818D02*
G01*
X1922727Y394818D01*
X1884182Y427545D02*
G01*
X1884182Y431181D01*
X1880545Y438454D01*
X1876908Y442091D01*
X1869636Y445727D01*
X1855091Y445727D01*
X1847817Y442091D01*
X1844182Y438454D01*
X1840545Y431181D01*
X1840545Y423908D01*
X1844182Y416635D01*
X1851454Y405727D01*
X1887817Y369364D01*
X1836908Y369364D01*
X1940909Y345727D02*
G01*
X1970000Y269364D01*
X1940909Y345727D02*
G01*
X1911818Y269364D01*
X1959090Y294818D02*
G01*
X1922727Y294818D01*
X1880545Y345727D02*
G01*
X1840545Y345727D01*
X1862363Y316635D01*
X1851454Y316635D01*
X1844182Y313000D01*
X1840545Y309364D01*
X1836908Y298454D01*
X1836908Y291181D01*
X1840545Y280273D01*
X1847817Y273000D01*
X1858726Y269364D01*
X1869636Y269364D01*
X1880545Y273000D01*
X1884182Y276635D01*
X1887817Y283908D01*
X1940910Y250727D02*
G01*
X1970001Y174364D01*
X1940910Y250727D02*
G01*
X1911818Y174364D01*
X1959092Y199818D02*
G01*
X1922727Y199818D01*
X1851455Y250727D02*
G01*
X1887818Y199818D01*
X1833274Y199818D01*
X1851455Y250727D02*
G01*
X1851455Y174364D01*
X1940909Y145727D02*
G01*
X1970000Y69364D01*
X1940909Y145727D02*
G01*
X1911818Y69364D01*
X1959090Y94818D02*
G01*
X1922727Y94818D01*
X1887817Y145727D02*
G01*
X1887817Y69364D01*
X1887817Y145727D02*
G01*
X1862362Y145727D01*
X1851454Y142091D01*
X1844182Y134818D01*
X1840545Y127545D01*
X1836908Y116635D01*
X1836908Y98454D01*
X1840545Y87545D01*
X1844182Y80273D01*
X1851454Y73000D01*
X1862362Y69364D01*
X1887817Y69364D01*
D18*
X544504Y385399D02*
G01*
X544504Y352699D01*
X546604Y346500D01*
X548604Y344499D01*
X552703Y342500D01*
X556804Y342500D01*
X560904Y344499D01*
X563004Y346500D01*
X565003Y352699D01*
X565003Y356799D01*
X502404Y379299D02*
G01*
X506503Y383400D01*
X512604Y385399D01*
X520803Y385399D01*
X527004Y383400D01*
X531003Y379299D01*
X531003Y375199D01*
X529003Y371100D01*
X527004Y369000D01*
X522903Y366999D01*
X510603Y362899D01*
X506503Y360900D01*
X504504Y358800D01*
X502404Y354699D01*
X502404Y348600D01*
X506503Y344499D01*
X512604Y342500D01*
X520803Y342500D01*
X527004Y344499D01*
X531003Y348600D01*
X474603Y385399D02*
G01*
X474603Y342500D01*
X488904Y385399D02*
G01*
X460304Y385399D01*
X446804Y377199D02*
G01*
X442703Y379299D01*
X436503Y385399D01*
X436503Y342500D01*
X229299Y883602D02*
G01*
X233400Y879502D01*
X235399Y873402D01*
X235399Y865203D01*
X233400Y859103D01*
X229299Y855003D01*
X225199Y855003D01*
X221100Y857002D01*
X219000Y859103D01*
X216999Y863202D01*
X212899Y875502D01*
X210900Y879502D01*
X208800Y881603D01*
X204699Y883602D01*
X198600Y883602D01*
X194499Y879502D01*
X192500Y873402D01*
X192500Y865203D01*
X194499Y859103D01*
X198600Y855003D01*
X235399Y897103D02*
G01*
X192500Y907402D01*
X235399Y917602D02*
G01*
X192500Y907402D01*
X235399Y917602D02*
G01*
X192500Y927802D01*
X235399Y938002D02*
G01*
X192500Y927802D01*
D10*
X642640Y318270D02*
G01*
X642640Y546619D01*
X347359Y546619D01*
X347359Y318270D01*
X642640Y318270D01*
X573739Y526930D02*
G01*
X573739Y546619D01*
X416260Y546619D01*
X416260Y526930D01*
X573739Y526930D01*
X50000Y961350D02*
G01*
X170000Y961350D01*
X170000Y961350D02*
G01*
X170000Y611350D01*
X170000Y611350D02*
G01*
X50000Y611350D01*
X50000Y611350D02*
G01*
X50000Y961350D01*
M02*
