G04 Layer: BottomSolderMaskLayer*
G04 EasyEDA v6.4.29, 2022-01-17 15:18:18*
G04 f717e2ddec04441081c87138b9a9d0f6,57a4a698a74a44ef878f5d1479004e60,10*
G04 Gerber Generator version 0.2*
G04 Scale: 100 percent, Rotated: No, Reflected: No *
G04 Dimensions in inches *
G04 leading zeros omitted , absolute positions ,3 integer and 6 decimal *
%FSLAX36Y36*%
%MOIN*%

%ADD19C,0.0785*%
%ADD20C,0.0867*%
%ADD22C,0.0820*%
%ADD23C,0.0830*%

%LPD*%
D19*
G01*
X670000Y900000D03*
G01*
X770000Y900000D03*
G01*
X870000Y900000D03*
G01*
X970000Y900000D03*
G01*
X1070000Y900000D03*
G01*
X1170000Y900000D03*
G01*
X1270000Y900000D03*
G01*
X1370000Y900000D03*
G01*
X1470000Y900000D03*
G01*
X1570000Y900000D03*
G01*
X1670000Y900000D03*
G01*
X1770000Y900000D03*
G01*
X1770000Y100000D03*
G01*
X1670000Y100000D03*
G01*
X1570000Y100000D03*
G01*
X1470000Y100000D03*
G01*
X1370000Y100000D03*
G01*
X1270000Y100000D03*
G01*
X1170000Y100000D03*
G01*
X1070000Y100000D03*
G01*
X970000Y100000D03*
G01*
X870000Y100000D03*
G01*
X770000Y100000D03*
G01*
X670000Y100000D03*
G01*
X570000Y100000D03*
G01*
X470000Y100000D03*
G01*
X370000Y100000D03*
G01*
X270000Y100000D03*
D20*
G01*
X545000Y460000D03*
G01*
X445000Y460000D03*
G36*
X69000Y750300D02*
G01*
X69000Y832300D01*
X150999Y832300D01*
X150999Y750300D01*
G37*
D22*
G01*
X110000Y891350D03*
G01*
X110000Y691350D03*
D19*
G01*
X670000Y1035000D03*
G01*
X770000Y1035000D03*
G01*
X870000Y1035000D03*
G01*
X970000Y1035000D03*
G01*
X1070000Y1035000D03*
G01*
X1170000Y1035000D03*
G01*
X1270000Y1035000D03*
G01*
X1370000Y1035000D03*
G01*
X1470000Y1035000D03*
G01*
X1570000Y1035000D03*
G01*
X1670000Y1035000D03*
G01*
X1770000Y1035000D03*
G01*
X270000Y-35000D03*
G01*
X370000Y-35000D03*
G01*
X470000Y-35000D03*
G01*
X570000Y-35000D03*
G01*
X670000Y-35000D03*
G01*
X770000Y-35000D03*
G01*
X870000Y-35000D03*
G01*
X970000Y-35000D03*
G01*
X1070000Y-35000D03*
G01*
X1170000Y-35000D03*
G01*
X1270000Y-35000D03*
G01*
X1370000Y-35000D03*
G01*
X1470000Y-35000D03*
G01*
X1570000Y-35000D03*
G01*
X1670000Y-35000D03*
G01*
X1770000Y-35000D03*
D20*
G01*
X547500Y699184D03*
G01*
X447500Y699184D03*
D23*
G01*
X2019993Y97696D03*
G01*
X2019993Y197696D03*
G01*
X2019993Y297696D03*
G01*
X2019993Y397696D03*
G01*
X2019993Y497696D03*
G01*
X2019993Y597696D03*
G01*
X2019993Y697696D03*
G01*
X2019993Y797696D03*
G01*
X2019993Y897696D03*
M02*
