G04 Layer: TopSilkscreenLayer*
G04 EasyEDA v6.4.29, 2022-01-17 15:18:18*
G04 f717e2ddec04441081c87138b9a9d0f6,57a4a698a74a44ef878f5d1479004e60,10*
G04 Gerber Generator version 0.2*
G04 Scale: 100 percent, Rotated: No, Reflected: No *
G04 Dimensions in inches *
G04 leading zeros omitted , absolute positions ,3 integer and 6 decimal *
%FSLAX36Y36*%
%MOIN*%

%ADD10C,0.0100*%
%ADD16C,0.0080*%
%ADD17C,0.0070*%

%LPD*%
G36*
X1691960Y758600D02*
G01*
X1690540Y758580D01*
X1688880Y757980D01*
X1687020Y756760D01*
X1685000Y755000D01*
X1683240Y753139D01*
X1681620Y751220D01*
X1680340Y749440D01*
X1679560Y748040D01*
X1678620Y745440D01*
X1677880Y742720D01*
X1677360Y739940D01*
X1677040Y737159D01*
X1676920Y734400D01*
X1677000Y731740D01*
X1677260Y729200D01*
X1677720Y726820D01*
X1678380Y724680D01*
X1679199Y722800D01*
X1680220Y721240D01*
X1681420Y720040D01*
X1683160Y718540D01*
X1683839Y716880D01*
X1683520Y714040D01*
X1682260Y709080D01*
X1680980Y704900D01*
X1679480Y701540D01*
X1677660Y698800D01*
X1675420Y696440D01*
X1673160Y694340D01*
X1671220Y692260D01*
X1669580Y690260D01*
X1668240Y688319D01*
X1667200Y686440D01*
X1666459Y684640D01*
X1666060Y682920D01*
X1665940Y681300D01*
X1666160Y679760D01*
X1666680Y678300D01*
X1667520Y676960D01*
X1669319Y675140D01*
X1669820Y674539D01*
X1670160Y673840D01*
X1670320Y672940D01*
X1670300Y671760D01*
X1670040Y670160D01*
X1669580Y668080D01*
X1667860Y662020D01*
X1654300Y618820D01*
X1651420Y608540D01*
X1646879Y616560D01*
X1645500Y618720D01*
X1644079Y620720D01*
X1642620Y622600D01*
X1641100Y624360D01*
X1639460Y626020D01*
X1637680Y627620D01*
X1635760Y629200D01*
X1633680Y630740D01*
X1628860Y633860D01*
X1619680Y639240D01*
X1617660Y640639D01*
X1616240Y641880D01*
X1615280Y643100D01*
X1614700Y644460D01*
X1614300Y646100D01*
X1613839Y649659D01*
X1613500Y654020D01*
X1613060Y665620D01*
X1613000Y672580D01*
X1613060Y676000D01*
X1613220Y678940D01*
X1613480Y681540D01*
X1613860Y683880D01*
X1614379Y686080D01*
X1615040Y688240D01*
X1615860Y690440D01*
X1616900Y692840D01*
X1618080Y695120D01*
X1619379Y697280D01*
X1620820Y699280D01*
X1622340Y701160D01*
X1623980Y702880D01*
X1625720Y704440D01*
X1627520Y705840D01*
X1629400Y707080D01*
X1631339Y708139D01*
X1633340Y709020D01*
X1635400Y709700D01*
X1637480Y710200D01*
X1639600Y710500D01*
X1641720Y710580D01*
X1646519Y710220D01*
X1647760Y710400D01*
X1647760Y711160D01*
X1646800Y712680D01*
X1645700Y713820D01*
X1644139Y714800D01*
X1642320Y715500D01*
X1640380Y715879D01*
X1638640Y715920D01*
X1636720Y715699D01*
X1634620Y715260D01*
X1632440Y714620D01*
X1630200Y713800D01*
X1627960Y712820D01*
X1625760Y711720D01*
X1623680Y710520D01*
X1621740Y709220D01*
X1620000Y707880D01*
X1618500Y706480D01*
X1617320Y705080D01*
X1613620Y700320D01*
X1612420Y699160D01*
X1611540Y698800D01*
X1610920Y699280D01*
X1610460Y700580D01*
X1610120Y702740D01*
X1609360Y709220D01*
X1608440Y715220D01*
X1608040Y717000D01*
X1607860Y718340D01*
X1608080Y719700D01*
X1608680Y721000D01*
X1610700Y723640D01*
X1611459Y725639D01*
X1611960Y728060D01*
X1612180Y730740D01*
X1612120Y733540D01*
X1611780Y736320D01*
X1611140Y738940D01*
X1610200Y741240D01*
X1608980Y743139D01*
X1607340Y744900D01*
X1605360Y746480D01*
X1603100Y747900D01*
X1600640Y749100D01*
X1598040Y750080D01*
X1595360Y750819D01*
X1592660Y751280D01*
X1590020Y751460D01*
X1587500Y751320D01*
X1585160Y750860D01*
X1583080Y750040D01*
X1581800Y749140D01*
X1580960Y747840D01*
X1580500Y746020D01*
X1580360Y743640D01*
X1580400Y738600D01*
X1583340Y742280D01*
X1585100Y744100D01*
X1587080Y745360D01*
X1589220Y746060D01*
X1591519Y746200D01*
X1593899Y745780D01*
X1596360Y744820D01*
X1598860Y743300D01*
X1601320Y741240D01*
X1602960Y739680D01*
X1604160Y738379D01*
X1605040Y737200D01*
X1605580Y736000D01*
X1605860Y734640D01*
X1605940Y733000D01*
X1605600Y728280D01*
X1605440Y724440D01*
X1605580Y720060D01*
X1606020Y715660D01*
X1606680Y711720D01*
X1607620Y706900D01*
X1608380Y701080D01*
X1609120Y692520D01*
X1610000Y679560D01*
X1612120Y643580D01*
X1608340Y645900D01*
X1605640Y647300D01*
X1604660Y647220D01*
X1605440Y645860D01*
X1609400Y642200D01*
X1609940Y641480D01*
X1610380Y640580D01*
X1610760Y639460D01*
X1611060Y638020D01*
X1611560Y633900D01*
X1611997Y626460D01*
X1614940Y626460D01*
X1615040Y635280D01*
X1615180Y637800D01*
X1615380Y638700D01*
X1616360Y638360D01*
X1618260Y637440D01*
X1623680Y634380D01*
X1628899Y631040D01*
X1631300Y629300D01*
X1633560Y627520D01*
X1635680Y625700D01*
X1637660Y623820D01*
X1639500Y621920D01*
X1641180Y619960D01*
X1642740Y617980D01*
X1644160Y615960D01*
X1645420Y613900D01*
X1646519Y611800D01*
X1647500Y609660D01*
X1648300Y607500D01*
X1648980Y605320D01*
X1650440Y598300D01*
X1641060Y597060D01*
X1636879Y596080D01*
X1632220Y594660D01*
X1627640Y592960D01*
X1621840Y590420D01*
X1618760Y589300D01*
X1616680Y588800D01*
X1615880Y589020D01*
X1615380Y601180D01*
X1615060Y614380D01*
X1614940Y626460D01*
X1611997Y626460D01*
X1613260Y596380D01*
X1608060Y601900D01*
X1605440Y604360D01*
X1602160Y607000D01*
X1598660Y609480D01*
X1595340Y611500D01*
X1592960Y612820D01*
X1591120Y613960D01*
X1589720Y615020D01*
X1588660Y616140D01*
X1587880Y617400D01*
X1587260Y618960D01*
X1586699Y620920D01*
X1585400Y626800D01*
X1582760Y640140D01*
X1580600Y652760D01*
X1578980Y664120D01*
X1578380Y669160D01*
X1577680Y677620D01*
X1577600Y680900D01*
X1577680Y683480D01*
X1577960Y685240D01*
X1578180Y685819D01*
X1578440Y686160D01*
X1579360Y686380D01*
X1579720Y686660D01*
X1579800Y687099D01*
X1579360Y688160D01*
X1579360Y688600D01*
X1579580Y688900D01*
X1580000Y689000D01*
X1581500Y689980D01*
X1582780Y692480D01*
X1583640Y695960D01*
X1583880Y699800D01*
X1583620Y702120D01*
X1583060Y704440D01*
X1582260Y706720D01*
X1581220Y708860D01*
X1580020Y710819D01*
X1578660Y712540D01*
X1577200Y713920D01*
X1573140Y716460D01*
X1572180Y717240D01*
X1571560Y717880D01*
X1570800Y718340D01*
X1569319Y718700D01*
X1567320Y719000D01*
X1564980Y719200D01*
X1562500Y719280D01*
X1560060Y719240D01*
X1557880Y719080D01*
X1556100Y718760D01*
X1553760Y717760D01*
X1551960Y716240D01*
X1550780Y714340D01*
X1550360Y712200D01*
X1550680Y710220D01*
X1551600Y709460D01*
X1552980Y709900D01*
X1554780Y711560D01*
X1555980Y712540D01*
X1557620Y713100D01*
X1559860Y713280D01*
X1562840Y713080D01*
X1565520Y712660D01*
X1567860Y712000D01*
X1569880Y711080D01*
X1571600Y709920D01*
X1573080Y708460D01*
X1574300Y706680D01*
X1575320Y704580D01*
X1576160Y702120D01*
X1576680Y699659D01*
X1576960Y697120D01*
X1577000Y694640D01*
X1576800Y692380D01*
X1576420Y690480D01*
X1575860Y689080D01*
X1575140Y688360D01*
X1574300Y688439D01*
X1573680Y688720D01*
X1573340Y688600D01*
X1573300Y688100D01*
X1573980Y685720D01*
X1574840Y680020D01*
X1575420Y673360D01*
X1575500Y671060D01*
X1575440Y669900D01*
X1575220Y670040D01*
X1574600Y671040D01*
X1573480Y672220D01*
X1571980Y673439D01*
X1568640Y675520D01*
X1567300Y676460D01*
X1566380Y677280D01*
X1566060Y677800D01*
X1565500Y678180D01*
X1564000Y678439D01*
X1561759Y678600D01*
X1559019Y678600D01*
X1556180Y678379D01*
X1553440Y677800D01*
X1550820Y676840D01*
X1548380Y675560D01*
X1546120Y673960D01*
X1544060Y672039D01*
X1542260Y669860D01*
X1538620Y663800D01*
X1539040Y662860D01*
X1540980Y659260D01*
X1541240Y658439D01*
X1541080Y658139D01*
X1539880Y658520D01*
X1539720Y658000D01*
X1540000Y656800D01*
X1540740Y654920D01*
X1541720Y653139D01*
X1543040Y651480D01*
X1544500Y650140D01*
X1545940Y649340D01*
X1547700Y648800D01*
X1548580Y648860D01*
X1548700Y649620D01*
X1547780Y652820D01*
X1546860Y657060D01*
X1546519Y659160D01*
X1546320Y661860D01*
X1546759Y663860D01*
X1548020Y665680D01*
X1550340Y667720D01*
X1552200Y669060D01*
X1554040Y670080D01*
X1555860Y670759D01*
X1557740Y671120D01*
X1559700Y671180D01*
X1561780Y670920D01*
X1564019Y670360D01*
X1566459Y669479D01*
X1568360Y668640D01*
X1570040Y667760D01*
X1571480Y666780D01*
X1572740Y665639D01*
X1573839Y664260D01*
X1574800Y662600D01*
X1575680Y660580D01*
X1576500Y658180D01*
X1577280Y655280D01*
X1578880Y647840D01*
X1581879Y631840D01*
X1584100Y620740D01*
X1585040Y616580D01*
X1585040Y615020D01*
X1584280Y614320D01*
X1581140Y614020D01*
X1580700Y613840D01*
X1581360Y613540D01*
X1583160Y613020D01*
X1584580Y612460D01*
X1585820Y611580D01*
X1586115Y611240D01*
X1589760Y611240D01*
X1589920Y611500D01*
X1590720Y611220D01*
X1594400Y609440D01*
X1596800Y608140D01*
X1598839Y606880D01*
X1600820Y605440D01*
X1602720Y603840D01*
X1604520Y602100D01*
X1606200Y600280D01*
X1607760Y598380D01*
X1609139Y596480D01*
X1610340Y594580D01*
X1611360Y592720D01*
X1612140Y590940D01*
X1612700Y589280D01*
X1612980Y587780D01*
X1612980Y586440D01*
X1612700Y585340D01*
X1612080Y584480D01*
X1611649Y584220D01*
X1615780Y584220D01*
X1621220Y587500D01*
X1623180Y588560D01*
X1628000Y590720D01*
X1633500Y592700D01*
X1639120Y594360D01*
X1641759Y595020D01*
X1644220Y595520D01*
X1646420Y595840D01*
X1648260Y595980D01*
X1649680Y595900D01*
X1649019Y589780D01*
X1646339Y568320D01*
X1644900Y554420D01*
X1643940Y542520D01*
X1643060Y528120D01*
X1642600Y516200D01*
X1642360Y502320D01*
X1642340Y484060D01*
X1631660Y489560D01*
X1629100Y490720D01*
X1627280Y491400D01*
X1626459Y491500D01*
X1626639Y490920D01*
X1627540Y489680D01*
X1629019Y487960D01*
X1631432Y485439D01*
X1634720Y485439D01*
X1634980Y485760D01*
X1635740Y485600D01*
X1637000Y484960D01*
X1638779Y483820D01*
X1640520Y482420D01*
X1641879Y480900D01*
X1642740Y479360D01*
X1642966Y478180D01*
X1645040Y478180D01*
X1645120Y478380D01*
X1645460Y478180D01*
X1647020Y476740D01*
X1649280Y474260D01*
X1649678Y473579D01*
X1654980Y473579D01*
X1656160Y475379D01*
X1657440Y475439D01*
X1658530Y474040D01*
X1661920Y474040D01*
X1661980Y475880D01*
X1662260Y476940D01*
X1663220Y477420D01*
X1665200Y477840D01*
X1667860Y478160D01*
X1673740Y478459D01*
X1676260Y478380D01*
X1678040Y478160D01*
X1678720Y477740D01*
X1678320Y477239D01*
X1675640Y474960D01*
X1673700Y473500D01*
X1670760Y471460D01*
X1668920Y470660D01*
X1667420Y471019D01*
X1665540Y472380D01*
X1662420Y474940D01*
X1664860Y471260D01*
X1665760Y469739D01*
X1666240Y468420D01*
X1666279Y467420D01*
X1665860Y466780D01*
X1665320Y466380D01*
X1664860Y465820D01*
X1664560Y465180D01*
X1664460Y464540D01*
X1664600Y464040D01*
X1665020Y463920D01*
X1665680Y464180D01*
X1667960Y465540D01*
X1668640Y465220D01*
X1668620Y463860D01*
X1667860Y461500D01*
X1667367Y460860D01*
X1670160Y460860D01*
X1670280Y461320D01*
X1670580Y461560D01*
X1671040Y461580D01*
X1671579Y461340D01*
X1672140Y460940D01*
X1672600Y460379D01*
X1672900Y459780D01*
X1673020Y459180D01*
X1672900Y458740D01*
X1672600Y458480D01*
X1672140Y458440D01*
X1671579Y458620D01*
X1671040Y459080D01*
X1670580Y459660D01*
X1670280Y460280D01*
X1670160Y460860D01*
X1667367Y460860D01*
X1666720Y460020D01*
X1665220Y459400D01*
X1663940Y459739D01*
X1663480Y461019D01*
X1663440Y462200D01*
X1662900Y466500D01*
X1662100Y471700D01*
X1661920Y474040D01*
X1658530Y474040D01*
X1658640Y473900D01*
X1659560Y470860D01*
X1659880Y468900D01*
X1660020Y467200D01*
X1659980Y465940D01*
X1659740Y465260D01*
X1658320Y465740D01*
X1656540Y468160D01*
X1655180Y471240D01*
X1654980Y473579D01*
X1649678Y473579D01*
X1649760Y473440D01*
X1649460Y473040D01*
X1648440Y472939D01*
X1647540Y473160D01*
X1646680Y473740D01*
X1645960Y474600D01*
X1645500Y475660D01*
X1645080Y477600D01*
X1645040Y478180D01*
X1642966Y478180D01*
X1643020Y477900D01*
X1642880Y476480D01*
X1642300Y476240D01*
X1641020Y477299D01*
X1638779Y479739D01*
X1637000Y481820D01*
X1635740Y483459D01*
X1634980Y484680D01*
X1634720Y485439D01*
X1631432Y485439D01*
X1632800Y484000D01*
X1634220Y482320D01*
X1635200Y480959D01*
X1635700Y479900D01*
X1635740Y479159D01*
X1635320Y478780D01*
X1634440Y478720D01*
X1631940Y479260D01*
X1631040Y479219D01*
X1630440Y478960D01*
X1630220Y478459D01*
X1630400Y477900D01*
X1630900Y477440D01*
X1631620Y477140D01*
X1632500Y477020D01*
X1635540Y476300D01*
X1639019Y474580D01*
X1641879Y472480D01*
X1642983Y470740D01*
X1650680Y470740D01*
X1650720Y471180D01*
X1651020Y471480D01*
X1651540Y471580D01*
X1652120Y471480D01*
X1652600Y471180D01*
X1652920Y470740D01*
X1653040Y470220D01*
X1653000Y469720D01*
X1652860Y469280D01*
X1652660Y468980D01*
X1652420Y468860D01*
X1652100Y468980D01*
X1651300Y469720D01*
X1650900Y470220D01*
X1650680Y470740D01*
X1642983Y470740D01*
X1643060Y470620D01*
X1642540Y470280D01*
X1641100Y470620D01*
X1638839Y471599D01*
X1635920Y473180D01*
X1633540Y474720D01*
X1631540Y476300D01*
X1629880Y477980D01*
X1628520Y479860D01*
X1627400Y482000D01*
X1626519Y484460D01*
X1625800Y487320D01*
X1625040Y491580D01*
X1624460Y493760D01*
X1622460Y499440D01*
X1621500Y502720D01*
X1620640Y506180D01*
X1619900Y509880D01*
X1619240Y513880D01*
X1618660Y518220D01*
X1618180Y523000D01*
X1617400Y534060D01*
X1616840Y547540D01*
X1615780Y584220D01*
X1611649Y584220D01*
X1610080Y583160D01*
X1608740Y581720D01*
X1607260Y579800D01*
X1605820Y577580D01*
X1602500Y571980D01*
X1597000Y587220D01*
X1594480Y594520D01*
X1592440Y600780D01*
X1590920Y605800D01*
X1590000Y609360D01*
X1589760Y611240D01*
X1586115Y611240D01*
X1586740Y610520D01*
X1587220Y609420D01*
X1587860Y607100D01*
X1591140Y597000D01*
X1595180Y585180D01*
X1600472Y568780D01*
X1604560Y568780D01*
X1604860Y569800D01*
X1605720Y571500D01*
X1606960Y573640D01*
X1612400Y581820D01*
X1613440Y572680D01*
X1613880Y565400D01*
X1614199Y555840D01*
X1614340Y530700D01*
X1606720Y559500D01*
X1604660Y568120D01*
X1604560Y568780D01*
X1600472Y568780D01*
X1604040Y557020D01*
X1607240Y545900D01*
X1610100Y535480D01*
X1612460Y526220D01*
X1614199Y518500D01*
X1614820Y515379D01*
X1616080Y507200D01*
X1616840Y502939D01*
X1616860Y501800D01*
X1616040Y502040D01*
X1614280Y503760D01*
X1609680Y509140D01*
X1606020Y513220D01*
X1602260Y517100D01*
X1598420Y520740D01*
X1594520Y524120D01*
X1590600Y527260D01*
X1586639Y530120D01*
X1582700Y532700D01*
X1578800Y534980D01*
X1574940Y536920D01*
X1571140Y538540D01*
X1567440Y539800D01*
X1560160Y541600D01*
X1556800Y542120D01*
X1555120Y541860D01*
X1554640Y540860D01*
X1555000Y540340D01*
X1555960Y539920D01*
X1557380Y539620D01*
X1560520Y539440D01*
X1561980Y539260D01*
X1565120Y538540D01*
X1568540Y537360D01*
X1572160Y535800D01*
X1575960Y533840D01*
X1579880Y531540D01*
X1583860Y528920D01*
X1587880Y526020D01*
X1591879Y522879D01*
X1595820Y519520D01*
X1599640Y515980D01*
X1603320Y512280D01*
X1606780Y508459D01*
X1610000Y504540D01*
X1612000Y501900D01*
X1613620Y499580D01*
X1614920Y497520D01*
X1615960Y495600D01*
X1616740Y493740D01*
X1617295Y491980D01*
X1620400Y491980D01*
X1620520Y495340D01*
X1621680Y491980D01*
X1622520Y488960D01*
X1622940Y486540D01*
X1622960Y485520D01*
X1622800Y485160D01*
X1622400Y485520D01*
X1621680Y486540D01*
X1621140Y487600D01*
X1620740Y488960D01*
X1620480Y490480D01*
X1620400Y491980D01*
X1617295Y491980D01*
X1617780Y489780D01*
X1618140Y487500D01*
X1618460Y484140D01*
X1618500Y481740D01*
X1618240Y480340D01*
X1617740Y479900D01*
X1617000Y480460D01*
X1616100Y481980D01*
X1615020Y484460D01*
X1612740Y491079D01*
X1611680Y493660D01*
X1610760Y495420D01*
X1610140Y496060D01*
X1609800Y495780D01*
X1609720Y494960D01*
X1609880Y493780D01*
X1610280Y492299D01*
X1614740Y478900D01*
X1621819Y478900D01*
X1621900Y479900D01*
X1622580Y481740D01*
X1623080Y482800D01*
X1623560Y483220D01*
X1624060Y483020D01*
X1624700Y482220D01*
X1625560Y480640D01*
X1625820Y479960D01*
X1625920Y479420D01*
X1625760Y479020D01*
X1625320Y478700D01*
X1624640Y478480D01*
X1623820Y478380D01*
X1622420Y478480D01*
X1621819Y478900D01*
X1614740Y478900D01*
X1615920Y475340D01*
X1611200Y476620D01*
X1607400Y477520D01*
X1601699Y478700D01*
X1601459Y497120D01*
X1601300Y502299D01*
X1601160Y503620D01*
X1601000Y504159D01*
X1600780Y503960D01*
X1600200Y501500D01*
X1599760Y498459D01*
X1599360Y494700D01*
X1599100Y490700D01*
X1598820Y482220D01*
X1598320Y479640D01*
X1597140Y478480D01*
X1594940Y477980D01*
X1591000Y477420D01*
X1594940Y477180D01*
X1597360Y476680D01*
X1598779Y475680D01*
X1598839Y474739D01*
X1601819Y474700D01*
X1602220Y475220D01*
X1603240Y475520D01*
X1604920Y475580D01*
X1606519Y475180D01*
X1608452Y474080D01*
X1612360Y474080D01*
X1612720Y474300D01*
X1613440Y474140D01*
X1614307Y473660D01*
X1623100Y473660D01*
X1623200Y474460D01*
X1623520Y475080D01*
X1623959Y475520D01*
X1624520Y475660D01*
X1625080Y475439D01*
X1625540Y474840D01*
X1625840Y473940D01*
X1625914Y473140D01*
X1629460Y473140D01*
X1629740Y473640D01*
X1630900Y473240D01*
X1634820Y471019D01*
X1636140Y470080D01*
X1637040Y469320D01*
X1637360Y468780D01*
X1636260Y468000D01*
X1633800Y468560D01*
X1631240Y469960D01*
X1629780Y471740D01*
X1629460Y473140D01*
X1625914Y473140D01*
X1625840Y471860D01*
X1625540Y471140D01*
X1625080Y470800D01*
X1624520Y470860D01*
X1623959Y471360D01*
X1623520Y472060D01*
X1623200Y472860D01*
X1623100Y473660D01*
X1614307Y473660D01*
X1615180Y473020D01*
X1616000Y472220D01*
X1617240Y470340D01*
X1617060Y469540D01*
X1615800Y469920D01*
X1613839Y471580D01*
X1612940Y472620D01*
X1612440Y473480D01*
X1612360Y474080D01*
X1608452Y474080D01*
X1610420Y472580D01*
X1612340Y470620D01*
X1616120Y466300D01*
X1638779Y466300D01*
X1638940Y467260D01*
X1639460Y467420D01*
X1639812Y467180D01*
X1647380Y467180D01*
X1647640Y468380D01*
X1648480Y468740D01*
X1649920Y468260D01*
X1651980Y466940D01*
X1653640Y465140D01*
X1654400Y463080D01*
X1654160Y461400D01*
X1652840Y460700D01*
X1651180Y461380D01*
X1649400Y463040D01*
X1648000Y465160D01*
X1647380Y467180D01*
X1639812Y467180D01*
X1640340Y466820D01*
X1641660Y465420D01*
X1642500Y464400D01*
X1642700Y463900D01*
X1642240Y463860D01*
X1641120Y464219D01*
X1640220Y464660D01*
X1639480Y465180D01*
X1638959Y465740D01*
X1638779Y466300D01*
X1616120Y466300D01*
X1616540Y465820D01*
X1609120Y469420D01*
X1606480Y470780D01*
X1604420Y472000D01*
X1602940Y473080D01*
X1602080Y473980D01*
X1601819Y474700D01*
X1598687Y474700D01*
X1596620Y474180D01*
X1596560Y473820D01*
X1596920Y473300D01*
X1597720Y472620D01*
X1598720Y471340D01*
X1599215Y470140D01*
X1603140Y470140D01*
X1610000Y467040D01*
X1612480Y465780D01*
X1612740Y465580D01*
X1611120Y464320D01*
X1603140Y457520D01*
X1603140Y470140D01*
X1599215Y470140D01*
X1599620Y469159D01*
X1600340Y466240D01*
X1600860Y462700D01*
X1601740Y454640D01*
X1598880Y459580D01*
X1596940Y462640D01*
X1595080Y464940D01*
X1593700Y466120D01*
X1593140Y465740D01*
X1594240Y463440D01*
X1598280Y456260D01*
X1599224Y454260D01*
X1604760Y454260D01*
X1605680Y456520D01*
X1608440Y459660D01*
X1611699Y462080D01*
X1614780Y463040D01*
X1617240Y462520D01*
X1618274Y460880D01*
X1633160Y460880D01*
X1634000Y461719D01*
X1635940Y462060D01*
X1637040Y461980D01*
X1637940Y461740D01*
X1638560Y461400D01*
X1638779Y460940D01*
X1638500Y459720D01*
X1637720Y458920D01*
X1636540Y458620D01*
X1635080Y458860D01*
X1633500Y459840D01*
X1633160Y460880D01*
X1618274Y460880D01*
X1618540Y460460D01*
X1618440Y459320D01*
X1618246Y459099D01*
X1628820Y459099D01*
X1628880Y460200D01*
X1629079Y460600D01*
X1629500Y460319D01*
X1630927Y458140D01*
X1653040Y458140D01*
X1653160Y458600D01*
X1653460Y458840D01*
X1653920Y458860D01*
X1654480Y458620D01*
X1655020Y458220D01*
X1655480Y457660D01*
X1655780Y457060D01*
X1655864Y456640D01*
X1663020Y456640D01*
X1663220Y457580D01*
X1663420Y457879D01*
X1663660Y457980D01*
X1663980Y457879D01*
X1664780Y457140D01*
X1665160Y456640D01*
X1665380Y456120D01*
X1665340Y455680D01*
X1665060Y455379D01*
X1664540Y455280D01*
X1663959Y455379D01*
X1663480Y455680D01*
X1663140Y456120D01*
X1663020Y456640D01*
X1655864Y456640D01*
X1655900Y456460D01*
X1655780Y456019D01*
X1655480Y455780D01*
X1655020Y455760D01*
X1654480Y456000D01*
X1653920Y456400D01*
X1653460Y456940D01*
X1653160Y457560D01*
X1653040Y458140D01*
X1630927Y458140D01*
X1631519Y456800D01*
X1631639Y456240D01*
X1631519Y455860D01*
X1631220Y455700D01*
X1630780Y455740D01*
X1630220Y456000D01*
X1629680Y456460D01*
X1629220Y457220D01*
X1628920Y458140D01*
X1628820Y459099D01*
X1618246Y459099D01*
X1617580Y458340D01*
X1615880Y457460D01*
X1610880Y455980D01*
X1609160Y455379D01*
X1608040Y454860D01*
X1607560Y454440D01*
X1607720Y454159D01*
X1608520Y454060D01*
X1610000Y454140D01*
X1612160Y454480D01*
X1614640Y454739D01*
X1616519Y454520D01*
X1618100Y453760D01*
X1619573Y452400D01*
X1637920Y452400D01*
X1637940Y453459D01*
X1638520Y454219D01*
X1639700Y454540D01*
X1641500Y454320D01*
X1642660Y453760D01*
X1643040Y453380D01*
X1659340Y453380D01*
X1659560Y454380D01*
X1660440Y456140D01*
X1661080Y456480D01*
X1661459Y455420D01*
X1661600Y452960D01*
X1661519Y451420D01*
X1661240Y450540D01*
X1660780Y450300D01*
X1660120Y450700D01*
X1659620Y451400D01*
X1659360Y452340D01*
X1659340Y453380D01*
X1643040Y453380D01*
X1643620Y452800D01*
X1644282Y451599D01*
X1653040Y451599D01*
X1653160Y452440D01*
X1653300Y452580D01*
X1657020Y447720D01*
X1657340Y447140D01*
X1656840Y447340D01*
X1654580Y449140D01*
X1653779Y450040D01*
X1653240Y450880D01*
X1653040Y451599D01*
X1644282Y451599D01*
X1644800Y449840D01*
X1644905Y448900D01*
X1647260Y448900D01*
X1647640Y450460D01*
X1649319Y449980D01*
X1650140Y449099D01*
X1650920Y447879D01*
X1651560Y446460D01*
X1651980Y445040D01*
X1652300Y443160D01*
X1652200Y442400D01*
X1651480Y442680D01*
X1650000Y443920D01*
X1648100Y446360D01*
X1647260Y448900D01*
X1644905Y448900D01*
X1645020Y447879D01*
X1644860Y446880D01*
X1644220Y446659D01*
X1643040Y447120D01*
X1641040Y448360D01*
X1639500Y449720D01*
X1638440Y451100D01*
X1637920Y452400D01*
X1619573Y452400D01*
X1622380Y449280D01*
X1618520Y451599D01*
X1615540Y453220D01*
X1613860Y453800D01*
X1613520Y453340D01*
X1614560Y451820D01*
X1615380Y450820D01*
X1615640Y450300D01*
X1615300Y450180D01*
X1608480Y451760D01*
X1605700Y452740D01*
X1604760Y454260D01*
X1599224Y454260D01*
X1599880Y452520D01*
X1599920Y451760D01*
X1599319Y451719D01*
X1598220Y452180D01*
X1596759Y453040D01*
X1592680Y456019D01*
X1587240Y459680D01*
X1582140Y462740D01*
X1580140Y463800D01*
X1578720Y464400D01*
X1578040Y464460D01*
X1578540Y463780D01*
X1580360Y462299D01*
X1583180Y460280D01*
X1590300Y455460D01*
X1593160Y453280D01*
X1595000Y451599D01*
X1595560Y450640D01*
X1594960Y449920D01*
X1593680Y448940D01*
X1591900Y447819D01*
X1587780Y445640D01*
X1586240Y444640D01*
X1585340Y443840D01*
X1585220Y443360D01*
X1586000Y443320D01*
X1587600Y443780D01*
X1589760Y444640D01*
X1595600Y447400D01*
X1597860Y448100D01*
X1599480Y448000D01*
X1600425Y447460D01*
X1605600Y447460D01*
X1605600Y448700D01*
X1606060Y449480D01*
X1606960Y449799D01*
X1608380Y449660D01*
X1610340Y449040D01*
X1613297Y447760D01*
X1637360Y447760D01*
X1637780Y448060D01*
X1638880Y447420D01*
X1640460Y446079D01*
X1642300Y444260D01*
X1645148Y440980D01*
X1649520Y440980D01*
X1650160Y440840D01*
X1650461Y440600D01*
X1667480Y440600D01*
X1667540Y445560D01*
X1667760Y450260D01*
X1668180Y453680D01*
X1668740Y456040D01*
X1669379Y457040D01*
X1670460Y456820D01*
X1672340Y455600D01*
X1673839Y454219D01*
X1675520Y452239D01*
X1677180Y449880D01*
X1678580Y447440D01*
X1679660Y445160D01*
X1680480Y442960D01*
X1681080Y440920D01*
X1681420Y439040D01*
X1681519Y437400D01*
X1681360Y436040D01*
X1680940Y435000D01*
X1680240Y434320D01*
X1679220Y434500D01*
X1678160Y436040D01*
X1677240Y438560D01*
X1676620Y441680D01*
X1675940Y444380D01*
X1674680Y447520D01*
X1673320Y450100D01*
X1672260Y451200D01*
X1672020Y450820D01*
X1671980Y449780D01*
X1672100Y448260D01*
X1672700Y444060D01*
X1672620Y442140D01*
X1672120Y440580D01*
X1670300Y438140D01*
X1669460Y436820D01*
X1668779Y435439D01*
X1668100Y433660D01*
X1667900Y433920D01*
X1667720Y434860D01*
X1667520Y438320D01*
X1667480Y440600D01*
X1650461Y440600D01*
X1651720Y439600D01*
X1652231Y439040D01*
X1655900Y439040D01*
X1656080Y440080D01*
X1656519Y440260D01*
X1657220Y439500D01*
X1662100Y439500D01*
X1662140Y439940D01*
X1662420Y440220D01*
X1662940Y440319D01*
X1663520Y440220D01*
X1664019Y439940D01*
X1664340Y439500D01*
X1664460Y438960D01*
X1664259Y438000D01*
X1664060Y437700D01*
X1663820Y437600D01*
X1663520Y437700D01*
X1662700Y438440D01*
X1662320Y438960D01*
X1662100Y439500D01*
X1657220Y439500D01*
X1657860Y438240D01*
X1658100Y437460D01*
X1658080Y436960D01*
X1657800Y436780D01*
X1657300Y436960D01*
X1656759Y437380D01*
X1656320Y437900D01*
X1656000Y438459D01*
X1655900Y439040D01*
X1652231Y439040D01*
X1652780Y438440D01*
X1653660Y437160D01*
X1654259Y435860D01*
X1654480Y434720D01*
X1654079Y432560D01*
X1653120Y432340D01*
X1651840Y433880D01*
X1650520Y437040D01*
X1649680Y439780D01*
X1649520Y440980D01*
X1645148Y440980D01*
X1645920Y440040D01*
X1647260Y438080D01*
X1648000Y436560D01*
X1648360Y435000D01*
X1648160Y434080D01*
X1647260Y433620D01*
X1645580Y433519D01*
X1643800Y433800D01*
X1642380Y434799D01*
X1641120Y436780D01*
X1639780Y440000D01*
X1638820Y442580D01*
X1637540Y446719D01*
X1637360Y447760D01*
X1613297Y447760D01*
X1622380Y443280D01*
X1616339Y443760D01*
X1613880Y443820D01*
X1611759Y443660D01*
X1610180Y443280D01*
X1609580Y442879D01*
X1633460Y442879D01*
X1633860Y442760D01*
X1634680Y442080D01*
X1635300Y441340D01*
X1635700Y440620D01*
X1635820Y440020D01*
X1635660Y439600D01*
X1635260Y439500D01*
X1634800Y439780D01*
X1634319Y440379D01*
X1633880Y441280D01*
X1633480Y442380D01*
X1633460Y442879D01*
X1609580Y442879D01*
X1609340Y442720D01*
X1609079Y442120D01*
X1609240Y441840D01*
X1609840Y441840D01*
X1612000Y442440D01*
X1612620Y442299D01*
X1612760Y441659D01*
X1612632Y441160D01*
X1617760Y441160D01*
X1618160Y441580D01*
X1619960Y441040D01*
X1623160Y439600D01*
X1626140Y438020D01*
X1627040Y437440D01*
X1627380Y437120D01*
X1626220Y436800D01*
X1623580Y437400D01*
X1620660Y438519D01*
X1618680Y439840D01*
X1617760Y441160D01*
X1612632Y441160D01*
X1612460Y440480D01*
X1612487Y438960D01*
X1614540Y438960D01*
X1614720Y439940D01*
X1614920Y440220D01*
X1615160Y440319D01*
X1615480Y440220D01*
X1615880Y439940D01*
X1616680Y438960D01*
X1616900Y438440D01*
X1616860Y438000D01*
X1616560Y437700D01*
X1616060Y437600D01*
X1615460Y437700D01*
X1614980Y438000D01*
X1614660Y438440D01*
X1614540Y438960D01*
X1612487Y438960D01*
X1612500Y438300D01*
X1613720Y436400D01*
X1615124Y435560D01*
X1633580Y435560D01*
X1634019Y436060D01*
X1635120Y436960D01*
X1636680Y437920D01*
X1637760Y437879D01*
X1638700Y436599D01*
X1640664Y431700D01*
X1643380Y431700D01*
X1643800Y432080D01*
X1645380Y432160D01*
X1646680Y432020D01*
X1647940Y431680D01*
X1648769Y431280D01*
X1670300Y431280D01*
X1670600Y433519D01*
X1671519Y436040D01*
X1672700Y438100D01*
X1673800Y438960D01*
X1674180Y438720D01*
X1675180Y437100D01*
X1676220Y434400D01*
X1677340Y430620D01*
X1677800Y428800D01*
X1678200Y426760D01*
X1678060Y426240D01*
X1677260Y427340D01*
X1673820Y433160D01*
X1672760Y434400D01*
X1672100Y434000D01*
X1671000Y430780D01*
X1670660Y430180D01*
X1670420Y430340D01*
X1670300Y431280D01*
X1648769Y431280D01*
X1649060Y431140D01*
X1649840Y430480D01*
X1651121Y428440D01*
X1653940Y428440D01*
X1653980Y429159D01*
X1654340Y429440D01*
X1654880Y429200D01*
X1655440Y428560D01*
X1655994Y427560D01*
X1672080Y427560D01*
X1672300Y428080D01*
X1673100Y429060D01*
X1673500Y429340D01*
X1673800Y429440D01*
X1674060Y429340D01*
X1674259Y429060D01*
X1674440Y428080D01*
X1674319Y427560D01*
X1674000Y427120D01*
X1673520Y426820D01*
X1672920Y426719D01*
X1672400Y426820D01*
X1672120Y427120D01*
X1672080Y427560D01*
X1655994Y427560D01*
X1656380Y426480D01*
X1656486Y425959D01*
X1658899Y425959D01*
X1660000Y425800D01*
X1662526Y423740D01*
X1683800Y423740D01*
X1683920Y424320D01*
X1685220Y425020D01*
X1687300Y425340D01*
X1689259Y425220D01*
X1690120Y424640D01*
X1689680Y423260D01*
X1688580Y421120D01*
X1687680Y419620D01*
X1687000Y419099D01*
X1686240Y419520D01*
X1685140Y420880D01*
X1684460Y421900D01*
X1684000Y422900D01*
X1683800Y423740D01*
X1662526Y423740D01*
X1664000Y422180D01*
X1665000Y420800D01*
X1665480Y419680D01*
X1665340Y418960D01*
X1664720Y418820D01*
X1663779Y419219D01*
X1662680Y420080D01*
X1661540Y421360D01*
X1659379Y424400D01*
X1658899Y425959D01*
X1656486Y425959D01*
X1656879Y424040D01*
X1656720Y423160D01*
X1655960Y423820D01*
X1654740Y426079D01*
X1654199Y427380D01*
X1653940Y428440D01*
X1651121Y428440D01*
X1651360Y428060D01*
X1652280Y425500D01*
X1652460Y423459D01*
X1651720Y422640D01*
X1651120Y422760D01*
X1650640Y423100D01*
X1650320Y423620D01*
X1650200Y424240D01*
X1649880Y425060D01*
X1649040Y426240D01*
X1647800Y427580D01*
X1644180Y430740D01*
X1643380Y431700D01*
X1640680Y431659D01*
X1642540Y426079D01*
X1642560Y425520D01*
X1642100Y426060D01*
X1638500Y432840D01*
X1637120Y434739D01*
X1635880Y435640D01*
X1634660Y435680D01*
X1633779Y435439D01*
X1633580Y435560D01*
X1615124Y435560D01*
X1615660Y435240D01*
X1619100Y435379D01*
X1620860Y435080D01*
X1622980Y434460D01*
X1625280Y433600D01*
X1627600Y432560D01*
X1629740Y431420D01*
X1631540Y430240D01*
X1632820Y429120D01*
X1633460Y428100D01*
X1632940Y427819D01*
X1630960Y428320D01*
X1623800Y430760D01*
X1621140Y431480D01*
X1619379Y431780D01*
X1618520Y431680D01*
X1618620Y431180D01*
X1619680Y430360D01*
X1621780Y429200D01*
X1628080Y426240D01*
X1630680Y424840D01*
X1632440Y423660D01*
X1633080Y422879D01*
X1633243Y421760D01*
X1636000Y421760D01*
X1636339Y422000D01*
X1637260Y421520D01*
X1638600Y420360D01*
X1640374Y418480D01*
X1672280Y418480D01*
X1672500Y419280D01*
X1673240Y420700D01*
X1673600Y421120D01*
X1673880Y421280D01*
X1674100Y421120D01*
X1674280Y420700D01*
X1674440Y419280D01*
X1674319Y418480D01*
X1674040Y417819D01*
X1673600Y417360D01*
X1673060Y417200D01*
X1672580Y417360D01*
X1672320Y417819D01*
X1672280Y418480D01*
X1640374Y418480D01*
X1642012Y416480D01*
X1683000Y416480D01*
X1683140Y417879D01*
X1683580Y418500D01*
X1684240Y418320D01*
X1685080Y417360D01*
X1685280Y416780D01*
X1685220Y416180D01*
X1685126Y416000D01*
X1688740Y416000D01*
X1688800Y417440D01*
X1689019Y418780D01*
X1689360Y419880D01*
X1689760Y420560D01*
X1690800Y420720D01*
X1691260Y419300D01*
X1691120Y417100D01*
X1690260Y414880D01*
X1689480Y413740D01*
X1689019Y413480D01*
X1688820Y414219D01*
X1688740Y416000D01*
X1685126Y416000D01*
X1684940Y415640D01*
X1684440Y415200D01*
X1683880Y415020D01*
X1683420Y415200D01*
X1683100Y415700D01*
X1683000Y416480D01*
X1642012Y416480D01*
X1642960Y415140D01*
X1643600Y413920D01*
X1643620Y413280D01*
X1641980Y413860D01*
X1639379Y416320D01*
X1637000Y419380D01*
X1636000Y421760D01*
X1633243Y421760D01*
X1633640Y420100D01*
X1634379Y417879D01*
X1634379Y417380D01*
X1633920Y417500D01*
X1631200Y419520D01*
X1629980Y419840D01*
X1629480Y419180D01*
X1629840Y417600D01*
X1630280Y416320D01*
X1630140Y415880D01*
X1629199Y416240D01*
X1627300Y417360D01*
X1625880Y418560D01*
X1624620Y420100D01*
X1623640Y421820D01*
X1623060Y423519D01*
X1622680Y425140D01*
X1622220Y426040D01*
X1621740Y426220D01*
X1620640Y425060D01*
X1620020Y424680D01*
X1619379Y424560D01*
X1618800Y424720D01*
X1618140Y425300D01*
X1617220Y426380D01*
X1614840Y429739D01*
X1612100Y434060D01*
X1609420Y438640D01*
X1607240Y442780D01*
X1605980Y445760D01*
X1605600Y447460D01*
X1600425Y447460D01*
X1600880Y447200D01*
X1602040Y445959D01*
X1603480Y443980D01*
X1605060Y441500D01*
X1606639Y438800D01*
X1608020Y436140D01*
X1609100Y433820D01*
X1609720Y432080D01*
X1609720Y431200D01*
X1608959Y431140D01*
X1607340Y431420D01*
X1599640Y433579D01*
X1596699Y434240D01*
X1594060Y434680D01*
X1592040Y434799D01*
X1591000Y434580D01*
X1591579Y434060D01*
X1593740Y433260D01*
X1605620Y429940D01*
X1608580Y428940D01*
X1610980Y427939D01*
X1612980Y426860D01*
X1614740Y425660D01*
X1616399Y424240D01*
X1622380Y418080D01*
X1618480Y420400D01*
X1616360Y421420D01*
X1614139Y421980D01*
X1611680Y422120D01*
X1608760Y421840D01*
X1606339Y421340D01*
X1604780Y420800D01*
X1604120Y420220D01*
X1604360Y419600D01*
X1605240Y419099D01*
X1606519Y418940D01*
X1608140Y419140D01*
X1612080Y420220D01*
X1613600Y420439D01*
X1614700Y420280D01*
X1616000Y419140D01*
X1617100Y418420D01*
X1618480Y417700D01*
X1620020Y417040D01*
X1623820Y415680D01*
X1620911Y414120D01*
X1633620Y414120D01*
X1634100Y414300D01*
X1635100Y414400D01*
X1636100Y414380D01*
X1636780Y414240D01*
X1637100Y414000D01*
X1636980Y413680D01*
X1636480Y413440D01*
X1635820Y413340D01*
X1635040Y413380D01*
X1634240Y413600D01*
X1633660Y413880D01*
X1633620Y414120D01*
X1620911Y414120D01*
X1618060Y412460D01*
X1617760Y411920D01*
X1619259Y412160D01*
X1622480Y413200D01*
X1624620Y413740D01*
X1626459Y413660D01*
X1628460Y412819D01*
X1633020Y409820D01*
X1634980Y408740D01*
X1636680Y408020D01*
X1639500Y407520D01*
X1640420Y406920D01*
X1640680Y406019D01*
X1640360Y404920D01*
X1639500Y403720D01*
X1638160Y402520D01*
X1636339Y401400D01*
X1634139Y400480D01*
X1633100Y399880D01*
X1632300Y398840D01*
X1631780Y397480D01*
X1631579Y395840D01*
X1631279Y390460D01*
X1630700Y385260D01*
X1629880Y380740D01*
X1629400Y378900D01*
X1628440Y375900D01*
X1628299Y374980D01*
X1630660Y374980D01*
X1632160Y378400D01*
X1632700Y380840D01*
X1633100Y383980D01*
X1633500Y392420D01*
X1633760Y394140D01*
X1634180Y395540D01*
X1634840Y396760D01*
X1635760Y397920D01*
X1637000Y399140D01*
X1642120Y403500D01*
X1643860Y404660D01*
X1644440Y404260D01*
X1644480Y402480D01*
X1644259Y401240D01*
X1643600Y399739D01*
X1642640Y398160D01*
X1641480Y396719D01*
X1639220Y394200D01*
X1637480Y392060D01*
X1636220Y390160D01*
X1635380Y388340D01*
X1634920Y386440D01*
X1634843Y385420D01*
X1636420Y385420D01*
X1637000Y387380D01*
X1638400Y389540D01*
X1642700Y394440D01*
X1644440Y396900D01*
X1645760Y399240D01*
X1646459Y401120D01*
X1646980Y402800D01*
X1647720Y404040D01*
X1648660Y404780D01*
X1649800Y405040D01*
X1651120Y404720D01*
X1651245Y404500D01*
X1659520Y404500D01*
X1659620Y404820D01*
X1660300Y404940D01*
X1661440Y404900D01*
X1664820Y404219D01*
X1666900Y403600D01*
X1669240Y402620D01*
X1670500Y401440D01*
X1670857Y400120D01*
X1674920Y400120D01*
X1674980Y400540D01*
X1675260Y400840D01*
X1675780Y400959D01*
X1676360Y400840D01*
X1676840Y400540D01*
X1677160Y400120D01*
X1677280Y399600D01*
X1677240Y399040D01*
X1677100Y398620D01*
X1676900Y398340D01*
X1676660Y398240D01*
X1676339Y398340D01*
X1675540Y399040D01*
X1675160Y399600D01*
X1674920Y400120D01*
X1670857Y400120D01*
X1671020Y399520D01*
X1671033Y397440D01*
X1678820Y397440D01*
X1678860Y398380D01*
X1679000Y399040D01*
X1679259Y399320D01*
X1679580Y399200D01*
X1679860Y398720D01*
X1679960Y398080D01*
X1679920Y397340D01*
X1679680Y396560D01*
X1679379Y396019D01*
X1679120Y396000D01*
X1678920Y396480D01*
X1678820Y397440D01*
X1671033Y397440D01*
X1671047Y395520D01*
X1687280Y395520D01*
X1687320Y396040D01*
X1687460Y396460D01*
X1687660Y396760D01*
X1687900Y396880D01*
X1688220Y396760D01*
X1689019Y396040D01*
X1689400Y395520D01*
X1689640Y394960D01*
X1689580Y394540D01*
X1689300Y394260D01*
X1688779Y394159D01*
X1688200Y394260D01*
X1687720Y394540D01*
X1687400Y394960D01*
X1687280Y395520D01*
X1671047Y395520D01*
X1671060Y393920D01*
X1671180Y392239D01*
X1684420Y392239D01*
X1684540Y392960D01*
X1684840Y393440D01*
X1685300Y393600D01*
X1685840Y393440D01*
X1686399Y392939D01*
X1686860Y392239D01*
X1687160Y391420D01*
X1687213Y391040D01*
X1691540Y391040D01*
X1691660Y392980D01*
X1691960Y394219D01*
X1692440Y394780D01*
X1693020Y394680D01*
X1693680Y393940D01*
X1694400Y392620D01*
X1695100Y390700D01*
X1695780Y388240D01*
X1696339Y385580D01*
X1696339Y384280D01*
X1695680Y384080D01*
X1694240Y384720D01*
X1693020Y385620D01*
X1692180Y386940D01*
X1691699Y388740D01*
X1691540Y391040D01*
X1687213Y391040D01*
X1687280Y390560D01*
X1687160Y389820D01*
X1686860Y389360D01*
X1686399Y389180D01*
X1685840Y389360D01*
X1685300Y389860D01*
X1684840Y390560D01*
X1684540Y391380D01*
X1684420Y392239D01*
X1671180Y392239D01*
X1671540Y389099D01*
X1672133Y386680D01*
X1682200Y386680D01*
X1682320Y386940D01*
X1682960Y387120D01*
X1684060Y387200D01*
X1685620Y387080D01*
X1686620Y386560D01*
X1687120Y385520D01*
X1687280Y383840D01*
X1687160Y382540D01*
X1686860Y381620D01*
X1686399Y381140D01*
X1685840Y381200D01*
X1685300Y381680D01*
X1684840Y382340D01*
X1684540Y383120D01*
X1684280Y384700D01*
X1683899Y385420D01*
X1683320Y386019D01*
X1682200Y386680D01*
X1672133Y386680D01*
X1672180Y386500D01*
X1672060Y386400D01*
X1670960Y388160D01*
X1668980Y392120D01*
X1666420Y397680D01*
X1665440Y399380D01*
X1664139Y401019D01*
X1662700Y402420D01*
X1661300Y403360D01*
X1660040Y404020D01*
X1659520Y404500D01*
X1651245Y404500D01*
X1651860Y403420D01*
X1652180Y400680D01*
X1652200Y396000D01*
X1652000Y391940D01*
X1651749Y390080D01*
X1657540Y390080D01*
X1657600Y391240D01*
X1657760Y391960D01*
X1657980Y392160D01*
X1658260Y391760D01*
X1658480Y390940D01*
X1658560Y390040D01*
X1658480Y389120D01*
X1658260Y388320D01*
X1657980Y387939D01*
X1657760Y388140D01*
X1657600Y388860D01*
X1657540Y390080D01*
X1651749Y390080D01*
X1651579Y388820D01*
X1650940Y386640D01*
X1650060Y385439D01*
X1648520Y383900D01*
X1647540Y381960D01*
X1647060Y379480D01*
X1647020Y376320D01*
X1646900Y374600D01*
X1646339Y373220D01*
X1645260Y372120D01*
X1643640Y371200D01*
X1640980Y370140D01*
X1639620Y369680D01*
X1639360Y370080D01*
X1639000Y371180D01*
X1638180Y374799D01*
X1636500Y383440D01*
X1636420Y385420D01*
X1634843Y385420D01*
X1634760Y384300D01*
X1634840Y381780D01*
X1635560Y374300D01*
X1635520Y371700D01*
X1635000Y370480D01*
X1633899Y370160D01*
X1632060Y370900D01*
X1630900Y372720D01*
X1630660Y374980D01*
X1628299Y374980D01*
X1628180Y374200D01*
X1628140Y372560D01*
X1628560Y369600D01*
X1627720Y368740D01*
X1625240Y368380D01*
X1617080Y368200D01*
X1614139Y367900D01*
X1612000Y367480D01*
X1610980Y366960D01*
X1610440Y366440D01*
X1609600Y366000D01*
X1608600Y365720D01*
X1607540Y365600D01*
X1604420Y364980D01*
X1600600Y363459D01*
X1597120Y361540D01*
X1595040Y359760D01*
X1594660Y359080D01*
X1594700Y358800D01*
X1595160Y358980D01*
X1596080Y359600D01*
X1598280Y360780D01*
X1601519Y361960D01*
X1605240Y362980D01*
X1609980Y363900D01*
X1611500Y364280D01*
X1616780Y366060D01*
X1617980Y366220D01*
X1618640Y365940D01*
X1618839Y365200D01*
X1618899Y364520D01*
X1619100Y364280D01*
X1619420Y364500D01*
X1619920Y365120D01*
X1622080Y366280D01*
X1625120Y365940D01*
X1628020Y364420D01*
X1629680Y362080D01*
X1630120Y360860D01*
X1630700Y360000D01*
X1631320Y359600D01*
X1631920Y359680D01*
X1632400Y360220D01*
X1632660Y361120D01*
X1632700Y362299D01*
X1632280Y364940D01*
X1632400Y366040D01*
X1632860Y366880D01*
X1633620Y367360D01*
X1634540Y367500D01*
X1634960Y366980D01*
X1634940Y365680D01*
X1634139Y361640D01*
X1634060Y360160D01*
X1634199Y359159D01*
X1634600Y358800D01*
X1635140Y359180D01*
X1635720Y360200D01*
X1636279Y361740D01*
X1637300Y365900D01*
X1637900Y367120D01*
X1638640Y367380D01*
X1639660Y366800D01*
X1640580Y366160D01*
X1641180Y365959D01*
X1641519Y366160D01*
X1641639Y366800D01*
X1641920Y367380D01*
X1642680Y367860D01*
X1643820Y368200D01*
X1647280Y368480D01*
X1648440Y369440D01*
X1649019Y371960D01*
X1649400Y376800D01*
X1649600Y377819D01*
X1649980Y378900D01*
X1650520Y379880D01*
X1651140Y380640D01*
X1652040Y381019D01*
X1652740Y380400D01*
X1653133Y379219D01*
X1654600Y379219D01*
X1654660Y379660D01*
X1655400Y382080D01*
X1655900Y384240D01*
X1656100Y385720D01*
X1656260Y385940D01*
X1656500Y385720D01*
X1656819Y385040D01*
X1656960Y384180D01*
X1656840Y383120D01*
X1656480Y382000D01*
X1655900Y380959D01*
X1655000Y379660D01*
X1654600Y379219D01*
X1653133Y379219D01*
X1653420Y377140D01*
X1653380Y374960D01*
X1653137Y373180D01*
X1657600Y373180D01*
X1657720Y373480D01*
X1658160Y373680D01*
X1659600Y373840D01*
X1659940Y374040D01*
X1659900Y374360D01*
X1659460Y374799D01*
X1658920Y375760D01*
X1658740Y377680D01*
X1658920Y380560D01*
X1659460Y384400D01*
X1660100Y387660D01*
X1660800Y390180D01*
X1661440Y391700D01*
X1661960Y392000D01*
X1662900Y391480D01*
X1662920Y392320D01*
X1662200Y394040D01*
X1660020Y397260D01*
X1659360Y398519D01*
X1658920Y399720D01*
X1658740Y400720D01*
X1658880Y401599D01*
X1659300Y401820D01*
X1660180Y401380D01*
X1661560Y400240D01*
X1662600Y399219D01*
X1663340Y398200D01*
X1663700Y397280D01*
X1663620Y396640D01*
X1663440Y396200D01*
X1663500Y395840D01*
X1663800Y395600D01*
X1664300Y395520D01*
X1665400Y394520D01*
X1666399Y391760D01*
X1667200Y387580D01*
X1667575Y383920D01*
X1678720Y383920D01*
X1678880Y385379D01*
X1679060Y385820D01*
X1679280Y386000D01*
X1679560Y385820D01*
X1679920Y385379D01*
X1680660Y383920D01*
X1680860Y383140D01*
X1680840Y382500D01*
X1680560Y382080D01*
X1680100Y381920D01*
X1679560Y382080D01*
X1679120Y382500D01*
X1678820Y383140D01*
X1678720Y383920D01*
X1667575Y383920D01*
X1667740Y382320D01*
X1667760Y380640D01*
X1667637Y379240D01*
X1690980Y379240D01*
X1691000Y381120D01*
X1691900Y382600D01*
X1692980Y383180D01*
X1694180Y382860D01*
X1695340Y381599D01*
X1696399Y379400D01*
X1696819Y377299D01*
X1696687Y376360D01*
X1698740Y376360D01*
X1698880Y377400D01*
X1699940Y377840D01*
X1700520Y377700D01*
X1701220Y377320D01*
X1701940Y376800D01*
X1702580Y376160D01*
X1703180Y375240D01*
X1703800Y374020D01*
X1704360Y372640D01*
X1704780Y371280D01*
X1705100Y369780D01*
X1705040Y369080D01*
X1704560Y369099D01*
X1703580Y369760D01*
X1702840Y370460D01*
X1702360Y371200D01*
X1702140Y371880D01*
X1702360Y372860D01*
X1702120Y373380D01*
X1701579Y373860D01*
X1700820Y374240D01*
X1699420Y375180D01*
X1698740Y376360D01*
X1696687Y376360D01*
X1696600Y375740D01*
X1695720Y375120D01*
X1693740Y375740D01*
X1692020Y377280D01*
X1690980Y379240D01*
X1667637Y379240D01*
X1667420Y378459D01*
X1667060Y378240D01*
X1666399Y378080D01*
X1665320Y377460D01*
X1663940Y376480D01*
X1661321Y374320D01*
X1674540Y374320D01*
X1674580Y375260D01*
X1674720Y375920D01*
X1674980Y376200D01*
X1687300Y376160D01*
X1687360Y377860D01*
X1687600Y378680D01*
X1688020Y378660D01*
X1688700Y377840D01*
X1689240Y376920D01*
X1689680Y375900D01*
X1689980Y374920D01*
X1690100Y374080D01*
X1690000Y373420D01*
X1689700Y372879D01*
X1689240Y372520D01*
X1688700Y372400D01*
X1688140Y372700D01*
X1687700Y373500D01*
X1687400Y374700D01*
X1687300Y376160D01*
X1675086Y376160D01*
X1675300Y376079D01*
X1675580Y375640D01*
X1675680Y375000D01*
X1675640Y374260D01*
X1675420Y373519D01*
X1675100Y372939D01*
X1674840Y372900D01*
X1674640Y373360D01*
X1674540Y374320D01*
X1661321Y374320D01*
X1659560Y373160D01*
X1658460Y372720D01*
X1657800Y372800D01*
X1657600Y373180D01*
X1653137Y373180D01*
X1653080Y372760D01*
X1652500Y370760D01*
X1650720Y367760D01*
X1649920Y366019D01*
X1649340Y364180D01*
X1649060Y362480D01*
X1649040Y360540D01*
X1649400Y359440D01*
X1650280Y359000D01*
X1651840Y359040D01*
X1653240Y359460D01*
X1654259Y360300D01*
X1654940Y361580D01*
X1655860Y366400D01*
X1656519Y367920D01*
X1657100Y367700D01*
X1657480Y364060D01*
X1657800Y362560D01*
X1658300Y361220D01*
X1658899Y360160D01*
X1659620Y359260D01*
X1660000Y359099D01*
X1660020Y359680D01*
X1659540Y362440D01*
X1659720Y363240D01*
X1660320Y363519D01*
X1662440Y363120D01*
X1662720Y363220D01*
X1662280Y363760D01*
X1659640Y365940D01*
X1659139Y366860D01*
X1659560Y367800D01*
X1660840Y369120D01*
X1662140Y370260D01*
X1663100Y370700D01*
X1663880Y370439D01*
X1665280Y368800D01*
X1665560Y368720D01*
X1665540Y369300D01*
X1665220Y370560D01*
X1664960Y372040D01*
X1665320Y373000D01*
X1666500Y373600D01*
X1668640Y374000D01*
X1671060Y374280D01*
X1672240Y373900D01*
X1672480Y372560D01*
X1672272Y371040D01*
X1681800Y371040D01*
X1681840Y372220D01*
X1682000Y372920D01*
X1682240Y373120D01*
X1682520Y372720D01*
X1682740Y371920D01*
X1682800Y371000D01*
X1682740Y370120D01*
X1682520Y369360D01*
X1682240Y368960D01*
X1682000Y369140D01*
X1681840Y369860D01*
X1681800Y371040D01*
X1672272Y371040D01*
X1671493Y366840D01*
X1685140Y366840D01*
X1685340Y367680D01*
X1686120Y369200D01*
X1686740Y369560D01*
X1687120Y368780D01*
X1687280Y366880D01*
X1687160Y365860D01*
X1686879Y365120D01*
X1686440Y364780D01*
X1685900Y364880D01*
X1685440Y365360D01*
X1685180Y366040D01*
X1685140Y366840D01*
X1671493Y366840D01*
X1670620Y363579D01*
X1670060Y362000D01*
X1669560Y359720D01*
X1670140Y358820D01*
X1671380Y359360D01*
X1672940Y361360D01*
X1674760Y362939D01*
X1677160Y363280D01*
X1679240Y362520D01*
X1679460Y362080D01*
X1681680Y362080D01*
X1681699Y363020D01*
X1681860Y363680D01*
X1682100Y363960D01*
X1682420Y363840D01*
X1682700Y363400D01*
X1682820Y362760D01*
X1682760Y362020D01*
X1682540Y361280D01*
X1682220Y360700D01*
X1681960Y360660D01*
X1681780Y361120D01*
X1681680Y362080D01*
X1679460Y362080D01*
X1680140Y360720D01*
X1680440Y359380D01*
X1681260Y358860D01*
X1682480Y359180D01*
X1684740Y360900D01*
X1685380Y361100D01*
X1685960Y360900D01*
X1686480Y360319D01*
X1688020Y359159D01*
X1690120Y358860D01*
X1692160Y359380D01*
X1693420Y360640D01*
X1693580Y361500D01*
X1693460Y362460D01*
X1693100Y363420D01*
X1691800Y365080D01*
X1691579Y365700D01*
X1691840Y366180D01*
X1693300Y366980D01*
X1693839Y367660D01*
X1694199Y368519D01*
X1694280Y369440D01*
X1694199Y370220D01*
X1694000Y370600D01*
X1693760Y370560D01*
X1693040Y369520D01*
X1692360Y369159D01*
X1691519Y369080D01*
X1690620Y369280D01*
X1689620Y369720D01*
X1689259Y370120D01*
X1689500Y370580D01*
X1690360Y371200D01*
X1692080Y372080D01*
X1693440Y372239D01*
X1694800Y371659D01*
X1696440Y370240D01*
X1697300Y369060D01*
X1698020Y367380D01*
X1698500Y365420D01*
X1698800Y361640D01*
X1699120Y360160D01*
X1699620Y359159D01*
X1700200Y358800D01*
X1700740Y358980D01*
X1701040Y359480D01*
X1701120Y360260D01*
X1700760Y362260D01*
X1700800Y363459D01*
X1701060Y364620D01*
X1701519Y365600D01*
X1702240Y366400D01*
X1702920Y366320D01*
X1703620Y365280D01*
X1705280Y361480D01*
X1706260Y360160D01*
X1707280Y359219D01*
X1708260Y358740D01*
X1709060Y358720D01*
X1709600Y359219D01*
X1709760Y360240D01*
X1709440Y361840D01*
X1706980Y370319D01*
X1706180Y372640D01*
X1705120Y374860D01*
X1703940Y376760D01*
X1701660Y379280D01*
X1700600Y380959D01*
X1699740Y382900D01*
X1698680Y386920D01*
X1697960Y389140D01*
X1697140Y391260D01*
X1695360Y394980D01*
X1695080Y395980D01*
X1695460Y396260D01*
X1696519Y396000D01*
X1697360Y395540D01*
X1698040Y394940D01*
X1698500Y394240D01*
X1698959Y392740D01*
X1699720Y391820D01*
X1700860Y390900D01*
X1703640Y389240D01*
X1704760Y388340D01*
X1705540Y387500D01*
X1705840Y386800D01*
X1705920Y386320D01*
X1706180Y386220D01*
X1706560Y386480D01*
X1707020Y387040D01*
X1708540Y388080D01*
X1710440Y387879D01*
X1712240Y386620D01*
X1713400Y384480D01*
X1713899Y383340D01*
X1714640Y382560D01*
X1715600Y382180D01*
X1717940Y382180D01*
X1718839Y381740D01*
X1719460Y380860D01*
X1720100Y378340D01*
X1720540Y377360D01*
X1721100Y376719D01*
X1721680Y376480D01*
X1722180Y376400D01*
X1722480Y376160D01*
X1722540Y375800D01*
X1722220Y374799D01*
X1722280Y374040D01*
X1722540Y373180D01*
X1723000Y372320D01*
X1723640Y371460D01*
X1724060Y371260D01*
X1724259Y371760D01*
X1724379Y374440D01*
X1724640Y374940D01*
X1725300Y374440D01*
X1727400Y372080D01*
X1727920Y371620D01*
X1728100Y371599D01*
X1727640Y372720D01*
X1727520Y373240D01*
X1727560Y373620D01*
X1727800Y373760D01*
X1728260Y373440D01*
X1728980Y372560D01*
X1729840Y371260D01*
X1730740Y369680D01*
X1732880Y366800D01*
X1735480Y364460D01*
X1737680Y363320D01*
X1738600Y364000D01*
X1738320Y364760D01*
X1737560Y365920D01*
X1736420Y367360D01*
X1733660Y370400D01*
X1732520Y371840D01*
X1731759Y373080D01*
X1731480Y373920D01*
X1731160Y374540D01*
X1730260Y375240D01*
X1728940Y375980D01*
X1725680Y377360D01*
X1724220Y378360D01*
X1723100Y379500D01*
X1722000Y381719D01*
X1721200Y382760D01*
X1720220Y383600D01*
X1717960Y384739D01*
X1716740Y385580D01*
X1715580Y386560D01*
X1713660Y388560D01*
X1712380Y389340D01*
X1710960Y389880D01*
X1707980Y390400D01*
X1706060Y391280D01*
X1704040Y392600D01*
X1700280Y395980D01*
X1698260Y397580D01*
X1696339Y398880D01*
X1693520Y400280D01*
X1692500Y401040D01*
X1691800Y401900D01*
X1691260Y403540D01*
X1690500Y404520D01*
X1689360Y405520D01*
X1686600Y407260D01*
X1685460Y408320D01*
X1684700Y409440D01*
X1684420Y410480D01*
X1684720Y412600D01*
X1685560Y413579D01*
X1686780Y413300D01*
X1690120Y409900D01*
X1691699Y409140D01*
X1692620Y409580D01*
X1692180Y412280D01*
X1692240Y413380D01*
X1692560Y414440D01*
X1693700Y416380D01*
X1694040Y417819D01*
X1694120Y419440D01*
X1693680Y423120D01*
X1693920Y424560D01*
X1694760Y425640D01*
X1697760Y427380D01*
X1698040Y427780D01*
X1696960Y427760D01*
X1694400Y427440D01*
X1692300Y427299D01*
X1690260Y427360D01*
X1688520Y427620D01*
X1687300Y428080D01*
X1686380Y428860D01*
X1686360Y429860D01*
X1687320Y431280D01*
X1691680Y436100D01*
X1692220Y437480D01*
X1691120Y437320D01*
X1686960Y434200D01*
X1686100Y433760D01*
X1685800Y434000D01*
X1686040Y434820D01*
X1686780Y436100D01*
X1687980Y437800D01*
X1689600Y439820D01*
X1691620Y442080D01*
X1694720Y445040D01*
X1696560Y446520D01*
X1698520Y447960D01*
X1702840Y450720D01*
X1705140Y452000D01*
X1711240Y455060D01*
X1713980Y456580D01*
X1715460Y457620D01*
X1715380Y457980D01*
X1714120Y457879D01*
X1712640Y457560D01*
X1709120Y456360D01*
X1705180Y454560D01*
X1701100Y452280D01*
X1697180Y449739D01*
X1693740Y447040D01*
X1689680Y443620D01*
X1688440Y442760D01*
X1687720Y442480D01*
X1687480Y442760D01*
X1687680Y443620D01*
X1688320Y445040D01*
X1689360Y447040D01*
X1690600Y448960D01*
X1692220Y450920D01*
X1694160Y452860D01*
X1696420Y454760D01*
X1698980Y456620D01*
X1701759Y458380D01*
X1704760Y460040D01*
X1710520Y462840D01*
X1712240Y463840D01*
X1712960Y464540D01*
X1712520Y464780D01*
X1710900Y464580D01*
X1708880Y463960D01*
X1706519Y463020D01*
X1703959Y461780D01*
X1701279Y460319D01*
X1698620Y458680D01*
X1696060Y456920D01*
X1693720Y455100D01*
X1688700Y450940D01*
X1688540Y454780D01*
X1688360Y456079D01*
X1688020Y455959D01*
X1687480Y454420D01*
X1685140Y444159D01*
X1680660Y450240D01*
X1678779Y452980D01*
X1676960Y455940D01*
X1675420Y458760D01*
X1674360Y461100D01*
X1673460Y463860D01*
X1673460Y465940D01*
X1674560Y468160D01*
X1677000Y471260D01*
X1678600Y473100D01*
X1682200Y476700D01*
X1686180Y480180D01*
X1690380Y483380D01*
X1694680Y486200D01*
X1696800Y487420D01*
X1698880Y488500D01*
X1703400Y490540D01*
X1705340Y491560D01*
X1706519Y492380D01*
X1706759Y492860D01*
X1705880Y492980D01*
X1704180Y492560D01*
X1701840Y491740D01*
X1695940Y489099D01*
X1692720Y487440D01*
X1689600Y485680D01*
X1684820Y482720D01*
X1683120Y481780D01*
X1681519Y481040D01*
X1679920Y480500D01*
X1678240Y480140D01*
X1676360Y479900D01*
X1671680Y479739D01*
X1667800Y479840D01*
X1665100Y480140D01*
X1663540Y480660D01*
X1663020Y481420D01*
X1663300Y482800D01*
X1664019Y485220D01*
X1666399Y491940D01*
X1669240Y499159D01*
X1670560Y502180D01*
X1671639Y504380D01*
X1672580Y505980D01*
X1675340Y510040D01*
X1678060Y513720D01*
X1678880Y515120D01*
X1679180Y516040D01*
X1678940Y516380D01*
X1678320Y516079D01*
X1677420Y515200D01*
X1676260Y513800D01*
X1673240Y509540D01*
X1669480Y503620D01*
X1667400Y500140D01*
X1666440Y498260D01*
X1664060Y492860D01*
X1662920Y489980D01*
X1660420Y483180D01*
X1659400Y488380D01*
X1659060Y491019D01*
X1659160Y493459D01*
X1659700Y495860D01*
X1660700Y498300D01*
X1662340Y501840D01*
X1662900Y503740D01*
X1662380Y503880D01*
X1659660Y500900D01*
X1659120Y501140D01*
X1659120Y503240D01*
X1659540Y507580D01*
X1660560Y514739D01*
X1661160Y518000D01*
X1662660Y524240D01*
X1662980Y526440D01*
X1662680Y527160D01*
X1661759Y526540D01*
X1661000Y525320D01*
X1660220Y523240D01*
X1659480Y520500D01*
X1658800Y517280D01*
X1658200Y513760D01*
X1657720Y510100D01*
X1657420Y506480D01*
X1657140Y499680D01*
X1656680Y496060D01*
X1656020Y492660D01*
X1654420Y487380D01*
X1653760Y484500D01*
X1653300Y481620D01*
X1653155Y479799D01*
X1655300Y479799D01*
X1655680Y483820D01*
X1656420Y489900D01*
X1657440Y484460D01*
X1657740Y482260D01*
X1657800Y480260D01*
X1657620Y478680D01*
X1657220Y477740D01*
X1656020Y476960D01*
X1655400Y477580D01*
X1655300Y479799D01*
X1653155Y479799D01*
X1653040Y473740D01*
X1647400Y478960D01*
X1646360Y480120D01*
X1645600Y481300D01*
X1645080Y482680D01*
X1644760Y484400D01*
X1644580Y486640D01*
X1644480Y493260D01*
X1644620Y499580D01*
X1644840Y502040D01*
X1645180Y504180D01*
X1645660Y506160D01*
X1646320Y508060D01*
X1647180Y510060D01*
X1649379Y514260D01*
X1651900Y518140D01*
X1653280Y520000D01*
X1656320Y523540D01*
X1657940Y525220D01*
X1661440Y528380D01*
X1665220Y531280D01*
X1669259Y533900D01*
X1673540Y536240D01*
X1678060Y538260D01*
X1682760Y539980D01*
X1687640Y541380D01*
X1690160Y541960D01*
X1695280Y542860D01*
X1700520Y543400D01*
X1703180Y543540D01*
X1709720Y543680D01*
X1712880Y543940D01*
X1715000Y544320D01*
X1715800Y544780D01*
X1715520Y545160D01*
X1714700Y545440D01*
X1713440Y545620D01*
X1709760Y545760D01*
X1704940Y545600D01*
X1699480Y545160D01*
X1693839Y544520D01*
X1688500Y543680D01*
X1683940Y542680D01*
X1679640Y541300D01*
X1674980Y539520D01*
X1670700Y537580D01*
X1666740Y535460D01*
X1663100Y533120D01*
X1659760Y530560D01*
X1656699Y527780D01*
X1655240Y526300D01*
X1652540Y523120D01*
X1650020Y519660D01*
X1646020Y513120D01*
X1645060Y511920D01*
X1644600Y512160D01*
X1644500Y513740D01*
X1644760Y520200D01*
X1645380Y529800D01*
X1646300Y541260D01*
X1647380Y553220D01*
X1648500Y564420D01*
X1649580Y573500D01*
X1650940Y583780D01*
X1651940Y590440D01*
X1652380Y592640D01*
X1652840Y594220D01*
X1653340Y595260D01*
X1653920Y595860D01*
X1654600Y596100D01*
X1655440Y596120D01*
X1657700Y595740D01*
X1659960Y595160D01*
X1662700Y594220D01*
X1665600Y593060D01*
X1670540Y590740D01*
X1672300Y590100D01*
X1673360Y589920D01*
X1673600Y590300D01*
X1672900Y591280D01*
X1671680Y592340D01*
X1670000Y593420D01*
X1667980Y594460D01*
X1665720Y595440D01*
X1663300Y596320D01*
X1660860Y597020D01*
X1658460Y597500D01*
X1652700Y598380D01*
X1653880Y607340D01*
X1654980Y612320D01*
X1656600Y618600D01*
X1658580Y625420D01*
X1664340Y643620D01*
X1674760Y677240D01*
X1677380Y684960D01*
X1678839Y688280D01*
X1679540Y689520D01*
X1680260Y690540D01*
X1681000Y691400D01*
X1681800Y692120D01*
X1683680Y693319D01*
X1686060Y694520D01*
X1689379Y695920D01*
X1692380Y696680D01*
X1695640Y696880D01*
X1703500Y696260D01*
X1705820Y696320D01*
X1706940Y696840D01*
X1707240Y697880D01*
X1707140Y698620D01*
X1706879Y699140D01*
X1706480Y699360D01*
X1705320Y699180D01*
X1704379Y699520D01*
X1703300Y700240D01*
X1702220Y701240D01*
X1700940Y702240D01*
X1699319Y703020D01*
X1697420Y703560D01*
X1695360Y703860D01*
X1693200Y703920D01*
X1691040Y703720D01*
X1689000Y703259D01*
X1685820Y701960D01*
X1684840Y701820D01*
X1684139Y702099D01*
X1683660Y702840D01*
X1683540Y703780D01*
X1683680Y705240D01*
X1684019Y707120D01*
X1685260Y711760D01*
X1686080Y714320D01*
X1688460Y720500D01*
X1688520Y721140D01*
X1688240Y721340D01*
X1687620Y721080D01*
X1686900Y720960D01*
X1686220Y721360D01*
X1685620Y722220D01*
X1685060Y723520D01*
X1684600Y725160D01*
X1684199Y727120D01*
X1683720Y731660D01*
X1683660Y734140D01*
X1683720Y736680D01*
X1683899Y739240D01*
X1684240Y741720D01*
X1685040Y745320D01*
X1686200Y748319D01*
X1687820Y750939D01*
X1690020Y753400D01*
X1692360Y755819D01*
X1693380Y757260D01*
X1693200Y758080D01*
G37*
G36*
X1697740Y405560D02*
G01*
X1696800Y405439D01*
X1695860Y405040D01*
X1694880Y404380D01*
X1694600Y403860D01*
X1695060Y403400D01*
X1696279Y402879D01*
X1698280Y402460D01*
X1699620Y402800D01*
X1700040Y403700D01*
X1699280Y404960D01*
X1698580Y405400D01*
G37*
G36*
X1651620Y373760D02*
G01*
X1651060Y373640D01*
X1650620Y373340D01*
X1650300Y372879D01*
X1650200Y372320D01*
X1650300Y371820D01*
X1650620Y371540D01*
X1651060Y371500D01*
X1651620Y371680D01*
X1652620Y372460D01*
X1652940Y372819D01*
X1653040Y373120D01*
X1652940Y373380D01*
X1652620Y373579D01*
X1652180Y373720D01*
G37*
D16*
X845500Y435700D02*
G01*
X845500Y359400D01*
X820000Y435700D02*
G01*
X870900Y435700D01*
X894899Y435700D02*
G01*
X894899Y359400D01*
X894899Y395700D02*
G01*
X905799Y406599D01*
X913100Y410300D01*
X923999Y410300D01*
X931300Y406599D01*
X934899Y395700D01*
X934899Y359400D01*
X958900Y388499D02*
G01*
X1002500Y388499D01*
X1002500Y395700D01*
X998900Y403000D01*
X995299Y406599D01*
X988000Y410300D01*
X977100Y410300D01*
X969799Y406599D01*
X962500Y399400D01*
X958900Y388499D01*
X958900Y381199D01*
X962500Y370300D01*
X969799Y363000D01*
X977100Y359400D01*
X988000Y359400D01*
X995299Y363000D01*
X1002500Y370300D01*
X1137100Y417500D02*
G01*
X1133500Y424800D01*
X1126199Y432100D01*
X1118900Y435700D01*
X1104399Y435700D01*
X1097100Y432100D01*
X1089799Y424800D01*
X1086199Y417500D01*
X1082500Y406599D01*
X1082500Y388499D01*
X1086199Y377500D01*
X1089799Y370300D01*
X1097100Y363000D01*
X1104399Y359400D01*
X1118900Y359400D01*
X1126199Y363000D01*
X1133500Y370300D01*
X1137100Y377500D01*
X1137100Y388499D01*
X1118900Y388499D02*
G01*
X1137100Y388499D01*
X1161099Y410300D02*
G01*
X1161099Y359400D01*
X1161099Y388499D02*
G01*
X1164700Y399400D01*
X1171999Y406599D01*
X1179300Y410300D01*
X1190200Y410300D01*
X1257799Y410300D02*
G01*
X1257799Y359400D01*
X1257799Y399400D02*
G01*
X1250500Y406599D01*
X1243299Y410300D01*
X1232399Y410300D01*
X1225100Y406599D01*
X1217799Y399400D01*
X1214200Y388499D01*
X1214200Y381199D01*
X1217799Y370300D01*
X1225100Y363000D01*
X1232399Y359400D01*
X1243299Y359400D01*
X1250500Y363000D01*
X1257799Y370300D01*
X1321800Y399400D02*
G01*
X1318199Y406599D01*
X1307299Y410300D01*
X1296400Y410300D01*
X1285500Y406599D01*
X1281800Y399400D01*
X1285500Y392100D01*
X1292700Y388499D01*
X1310900Y384800D01*
X1318199Y381199D01*
X1321800Y373899D01*
X1321800Y370300D01*
X1318199Y363000D01*
X1307299Y359400D01*
X1296400Y359400D01*
X1285500Y363000D01*
X1281800Y370300D01*
X1385799Y399400D02*
G01*
X1382200Y406599D01*
X1371300Y410300D01*
X1360399Y410300D01*
X1349499Y406599D01*
X1345799Y399400D01*
X1349499Y392100D01*
X1356700Y388499D01*
X1374899Y384800D01*
X1382200Y381199D01*
X1385799Y373899D01*
X1385799Y370300D01*
X1382200Y363000D01*
X1371300Y359400D01*
X1360399Y359400D01*
X1349499Y363000D01*
X1345799Y370300D01*
X1409799Y435700D02*
G01*
X1409799Y359400D01*
X1409799Y359400D02*
G01*
X1453500Y359400D01*
X1521099Y410300D02*
G01*
X1521099Y359400D01*
X1521099Y399400D02*
G01*
X1513800Y406599D01*
X1506499Y410300D01*
X1495600Y410300D01*
X1488400Y406599D01*
X1481099Y399400D01*
X1477500Y388499D01*
X1477500Y381199D01*
X1481099Y370300D01*
X1488400Y363000D01*
X1495600Y359400D01*
X1506499Y359400D01*
X1513800Y363000D01*
X1521099Y370300D01*
X1545100Y435700D02*
G01*
X1545100Y359400D01*
X1545100Y399400D02*
G01*
X1552399Y406599D01*
X1559600Y410300D01*
X1570500Y410300D01*
X1577799Y406599D01*
X1585100Y399400D01*
X1588699Y388499D01*
X1588699Y381199D01*
X1585100Y370300D01*
X1577799Y363000D01*
X1570500Y359400D01*
X1559600Y359400D01*
X1552399Y363000D01*
X1545100Y370300D01*
X820000Y545700D02*
G01*
X820000Y469400D01*
X820000Y545700D02*
G01*
X852700Y545700D01*
X863599Y542100D01*
X867299Y538499D01*
X870900Y531199D01*
X870900Y520300D01*
X867299Y513000D01*
X863599Y509400D01*
X852700Y505700D01*
X820000Y505700D01*
X894899Y520300D02*
G01*
X894899Y469400D01*
X894899Y498499D02*
G01*
X898500Y509400D01*
X905799Y516599D01*
X913100Y520300D01*
X923999Y520300D01*
X966199Y520300D02*
G01*
X958900Y516599D01*
X951599Y509400D01*
X948000Y498499D01*
X948000Y491199D01*
X951599Y480300D01*
X958900Y473000D01*
X966199Y469400D01*
X977100Y469400D01*
X984399Y473000D01*
X991599Y480300D01*
X995299Y491199D01*
X995299Y498499D01*
X991599Y509400D01*
X984399Y516599D01*
X977100Y520300D01*
X966199Y520300D01*
X1062899Y545700D02*
G01*
X1062899Y469400D01*
X1062899Y509400D02*
G01*
X1055600Y516599D01*
X1048400Y520300D01*
X1037500Y520300D01*
X1030200Y516599D01*
X1022899Y509400D01*
X1019300Y498499D01*
X1019300Y491199D01*
X1022899Y480300D01*
X1030200Y473000D01*
X1037500Y469400D01*
X1048400Y469400D01*
X1055600Y473000D01*
X1062899Y480300D01*
X1086899Y520300D02*
G01*
X1086899Y483899D01*
X1090500Y473000D01*
X1097799Y469400D01*
X1108699Y469400D01*
X1116000Y473000D01*
X1126899Y483899D01*
X1126899Y520300D02*
G01*
X1126899Y469400D01*
X1194499Y509400D02*
G01*
X1187299Y516599D01*
X1180000Y520300D01*
X1169099Y520300D01*
X1161800Y516599D01*
X1154499Y509400D01*
X1150900Y498499D01*
X1150900Y491199D01*
X1154499Y480300D01*
X1161800Y473000D01*
X1169099Y469400D01*
X1180000Y469400D01*
X1187299Y473000D01*
X1194499Y480300D01*
X1229499Y545700D02*
G01*
X1229499Y483899D01*
X1233100Y473000D01*
X1240399Y469400D01*
X1247600Y469400D01*
X1218500Y520300D02*
G01*
X1243999Y520300D01*
X1345799Y520300D02*
G01*
X1338500Y516599D01*
X1331300Y509400D01*
X1327600Y498499D01*
X1327600Y491199D01*
X1331300Y480300D01*
X1338500Y473000D01*
X1345799Y469400D01*
X1356700Y469400D01*
X1363999Y473000D01*
X1371300Y480300D01*
X1374899Y491199D01*
X1374899Y498499D01*
X1371300Y509400D01*
X1363999Y516599D01*
X1356700Y520300D01*
X1345799Y520300D01*
X1428000Y545700D02*
G01*
X1420699Y545700D01*
X1413500Y542100D01*
X1409799Y531199D01*
X1409799Y469400D01*
X1398900Y520300D02*
G01*
X1424399Y520300D01*
X1455600Y513000D02*
G01*
X1451999Y509400D01*
X1455600Y505700D01*
X1459300Y509400D01*
X1455600Y513000D01*
X1455600Y487500D02*
G01*
X1451999Y483899D01*
X1455600Y480300D01*
X1459300Y483899D01*
X1455600Y487500D01*
D17*
X226399Y1025399D02*
G01*
X210000Y982500D01*
X226399Y1025399D02*
G01*
X242699Y982500D01*
X216100Y996799D02*
G01*
X236599Y996799D01*
X256199Y1025399D02*
G01*
X256199Y982500D01*
X256199Y1025399D02*
G01*
X270500Y1025399D01*
X276700Y1023400D01*
X280799Y1019299D01*
X282800Y1015199D01*
X284899Y1009000D01*
X284899Y998800D01*
X282800Y992699D01*
X280799Y988600D01*
X276700Y984499D01*
X270500Y982500D01*
X256199Y982500D01*
X314699Y1025399D02*
G01*
X298400Y982500D01*
X314699Y1025399D02*
G01*
X331100Y982500D01*
X304499Y996799D02*
G01*
X325000Y996799D01*
X344600Y1025399D02*
G01*
X344600Y982500D01*
X344600Y982500D02*
G01*
X369099Y982500D01*
X394899Y1025399D02*
G01*
X390799Y1023400D01*
X386700Y1019299D01*
X384699Y1015199D01*
X382600Y1009000D01*
X382600Y998800D01*
X384699Y992699D01*
X386700Y988600D01*
X390799Y984499D01*
X394899Y982500D01*
X403099Y982500D01*
X407199Y984499D01*
X411300Y988600D01*
X413299Y992699D01*
X415399Y998800D01*
X415399Y1009000D01*
X413299Y1015199D01*
X411300Y1019299D01*
X407199Y1023400D01*
X403099Y1025399D01*
X394899Y1025399D01*
X459499Y1015199D02*
G01*
X457500Y1019299D01*
X453400Y1023400D01*
X449299Y1025399D01*
X441100Y1025399D01*
X436999Y1023400D01*
X433000Y1019299D01*
X430900Y1015199D01*
X428899Y1009000D01*
X428899Y998800D01*
X430900Y992699D01*
X433000Y988600D01*
X436999Y984499D01*
X441100Y982500D01*
X449299Y982500D01*
X453400Y984499D01*
X457500Y988600D01*
X459499Y992699D01*
X459499Y998800D01*
X449299Y998800D02*
G01*
X459499Y998800D01*
X503699Y1015199D02*
G01*
X501700Y1019299D01*
X497600Y1023400D01*
X493499Y1025399D01*
X485300Y1025399D01*
X481199Y1023400D01*
X477100Y1019299D01*
X475100Y1015199D01*
X473000Y1009000D01*
X473000Y998800D01*
X475100Y992699D01*
X477100Y988600D01*
X481199Y984499D01*
X485300Y982500D01*
X493499Y982500D01*
X497600Y984499D01*
X501700Y988600D01*
X503699Y992699D01*
X503699Y998800D01*
X493499Y998800D02*
G01*
X503699Y998800D01*
X517199Y1025399D02*
G01*
X517199Y982500D01*
X517199Y1025399D02*
G01*
X543800Y1025399D01*
X517199Y1005000D02*
G01*
X533600Y1005000D01*
X517199Y982500D02*
G01*
X543800Y982500D01*
X557300Y1025399D02*
G01*
X557300Y982500D01*
X557300Y1025399D02*
G01*
X575700Y1025399D01*
X581900Y1023400D01*
X583899Y1021300D01*
X585999Y1017199D01*
X585999Y1013099D01*
X583899Y1009000D01*
X581900Y1006999D01*
X575700Y1005000D01*
X557300Y1005000D01*
X571599Y1005000D02*
G01*
X585999Y982500D01*
D10*
X2120000Y150000D02*
G01*
X2120000Y850000D01*
X2020000Y950000D02*
G01*
X120000Y950000D01*
X20000Y850000D02*
G01*
X20000Y150000D01*
X120000Y50000D02*
G01*
X2020000Y50000D01*
G75*
G01*
X120000Y949998D02*
G03*
X20000Y849998I0J-100000D01*
G75*
G01*
X20000Y150000D02*
G03*
X120000Y50000I100000J0D01*
G75*
G01*
X2020000Y50000D02*
G03*
X2120000Y150000I0J100000D01*
G75*
G01*
X2120000Y850000D02*
G03*
X2020000Y950000I-100000J0D01*
M02*
